<svg viewBox="0 0 734.84 112.63" xmlns="http://www.w3.org/2000/svg"><g fill="#fff"><path d="m13.46 81.31a5.15 5.15 0 0 0 2-3.24v-73.55h-13.14a2.23 2.23 0 0 0 -1.62.7 2.33 2.33 0 0 0 -.7 1.78v-7h38.86v7a2.33 2.33 0 0 0 -.7-1.74 2.23 2.23 0 0 0 -1.62-.7h-12.06v73.44a4.42 4.42 0 0 0 .69 1.86 7.41 7.41 0 0 0 .52.87 2 2 0 0 0 .76.63l-2-.11v.11z"/><path d="m42.22 81.43v-.12a3.81 3.81 0 0 0 2.9-2.31v-75.64a4.37 4.37 0 0 0 -1-2.08 4.46 4.46 0 0 0 -2.12-1.05v-.11h12.4v33.06a13.6 13.6 0 0 1 8.6-2.79 13.12 13.12 0 0 1 5.68 1.16 21.41 21.41 0 0 1 2.49 1.34 11.43 11.43 0 0 1 2.15 1.68 18.67 18.67 0 0 1 3.13 4.52 12.87 12.87 0 0 1 1.16 5.57v34.34a3.82 3.82 0 0 0 2.9 2.32v.12h-15.67v-.12a3.12 3.12 0 0 0 2.44-1.5.37.37 0 0 0 .11-.24.35.35 0 0 1 .12-.23c.08-.07.12-.13.12-.17a.3.3 0 0 1 .11-.18v-38.4a6.73 6.73 0 0 0 -6.74-6.73 6.41 6.41 0 0 0 -4.4 1.63 7 7 0 0 0 -2.21 4.29v39.32a3.54 3.54 0 0 0 2.79 2.2v.12z"/><path d="m96.28 80.15a13.11 13.11 0 0 1 -5-3.48 13.15 13.15 0 0 1 -3.48-5 16.54 16.54 0 0 1 -1.28-6.27v-19a16.45 16.45 0 0 1 1.28-6.26 15.7 15.7 0 0 1 3.49-5.14 15.26 15.26 0 0 1 5-3.36 16.45 16.45 0 0 1 6.26-1.28h.12a16.17 16.17 0 0 1 6.14 1.28 11.82 11.82 0 0 1 2.73 1.45 29.7 29.7 0 0 1 2.37 1.91 15.24 15.24 0 0 1 4.64 11.37v10.93h-22.85v13a.46.46 0 0 0 .11.35v.47a9.57 9.57 0 0 0 3.48 5.22 9.17 9.17 0 0 0 5.8 2.32h.58a10.35 10.35 0 0 0 10-8.36h2.67a16.11 16.11 0 0 1 -5.11 7.31 11.48 11.48 0 0 1 -3.94 2.67 13.85 13.85 0 0 1 -3.25.81h-.46a.11.11 0 0 1 -.12.12h-.58a.46.46 0 0 1 -.35.11h-1.27a.68.68 0 0 1 -.47.12h-.23a16.45 16.45 0 0 1 -6.28-1.29zm13.72-40.15a6.28 6.28 0 0 0 -1.85-4.64 7.82 7.82 0 0 0 -4.64-2.32h-.81a7.45 7.45 0 0 0 -5.11 2 6.82 6.82 0 0 0 -2.09 5v12.62h14.5z"/><path d="m150 78.3a.46.46 0 0 1 .12-.35v-74.12a.35.35 0 0 1 -.12-.23 4.22 4.22 0 0 0 -2.34-3.25h16.71a19.79 19.79 0 0 1 6.84 1.27 15.65 15.65 0 0 1 5.45 3.48 18.58 18.58 0 0 1 3.71 5.11 14.76 14.76 0 0 1 1.4 6.26v9.17a14.25 14.25 0 0 1 -1.4 6.26 15.33 15.33 0 0 1 -3.71 5.1 15.65 15.65 0 0 1 -5.45 3.48 19.81 19.81 0 0 1 -6.84 1.28h-5.11v36.54a4.84 4.84 0 0 0 2.32 3.25h-13.92a4.23 4.23 0 0 0 2.34-3.25zm24-66.24a16.74 16.74 0 0 0 -2.66-4.29 12.48 12.48 0 0 0 -3.84-2.77 11.43 11.43 0 0 0 -4.76-1.05h-3.48v34h3.48a11.58 11.58 0 0 0 4.76-1 10.5 10.5 0 0 0 3.83-2.9 16.61 16.61 0 0 0 2.67-4.24 15.12 15.12 0 0 0 .93-5.22v-7.42a14.9 14.9 0 0 0 -.93-5.11z"/><path d="m185 81.43v-.12a3.81 3.81 0 0 0 2.9-2.32v-75.63a4.37 4.37 0 0 0 -1-2.08 4.46 4.46 0 0 0 -2.09-1v-.16h12.41v33.06a13.6 13.6 0 0 1 8.59-2.79 13.12 13.12 0 0 1 5.68 1.16 21.41 21.41 0 0 1 2.51 1.34 11.43 11.43 0 0 1 2.15 1.68 18.67 18.67 0 0 1 3.13 4.52 12.73 12.73 0 0 1 1.16 5.57v34.34a3.82 3.82 0 0 0 2.9 2.32v.12h-15.71v-.12a3.12 3.12 0 0 0 2.44-1.5.33.33 0 0 0 .11-.24.35.35 0 0 1 .12-.23c.08-.07.12-.13.12-.17s0-.1.11-.18v-38.4a6.74 6.74 0 0 0 -11.13-5.1 7 7 0 0 0 -2.21 4.29v39.32a3.54 3.54 0 0 0 2.79 2.2v.12z"/><path d="m228.63 78.18v-44.54a4.8 4.8 0 0 0 -2.44-3.36h2.44v-.12h9.28v48a4.46 4.46 0 0 0 2.43 3.25h-14.15a4.47 4.47 0 0 0 2.44-3.23zm8.23-54.28a4.9 4.9 0 0 1 -3.59 1.5 4.56 4.56 0 0 1 -3.48-1.5 4.53 4.53 0 0 1 -1.51-3.48 4.9 4.9 0 0 1 1.51-3.6 4.72 4.72 0 0 1 3.48-1.39 5.37 5.37 0 0 1 3.59 1.39 5.39 5.39 0 0 1 1.4 3.6 4.73 4.73 0 0 1 -1.4 3.48z"/><path d="m245.91 78.18v-74.82a4.75 4.75 0 0 0 -2.43-3.24h11.83v78.29a5 5 0 0 0 2.2 3h-14a4.46 4.46 0 0 0 2.4-3.23z"/><path d="m289.18 81.2c-.62-.16-1.05-.27-1.28-.35a8.3 8.3 0 0 1 -3.83-3.36 14.08 14.08 0 0 1 -3.94 2.78 11.68 11.68 0 0 1 -4.87 1 11.11 11.11 0 0 1 -2.67-.34 11.62 11.62 0 0 1 -6.15-3.48 12.18 12.18 0 0 1 -3.44-6.58 9.32 9.32 0 0 1 -.35-2.66v-.7a14.5 14.5 0 0 1 1.05-5.34 13.57 13.57 0 0 1 2.67-4.29q.35-.47.69-.87t.81-.87l1.74-1.39.93-.7a1.11 1.11 0 0 0 .35-.23l.23-.23a.31.31 0 0 0 .23-.12 1.46 1.46 0 0 1 .58-.34.35.35 0 0 1 .24-.12l1.74-1 .69-.47.7-.46a.31.31 0 0 1 .23-.12l.12-.11.46-.24a1.7 1.7 0 0 0 .46-.34 1.62 1.62 0 0 0 .35-.23 1.32 1.32 0 0 1 .35-.24l1.39-1c.16-.16.35-.33.58-.52s.43-.37.58-.53l1.39-1a6.26 6.26 0 0 1 .53-.46c.19-.16.36-.31.52-.47a6.06 6.06 0 0 1 .52-.46 6.1 6.1 0 0 0 .52-.47v-6.03a8.32 8.32 0 0 0 -2.43-4.18 8.35 8.35 0 0 0 -4.64-1.74h-1.4a2.09 2.09 0 0 1 -.69.12 1.25 1.25 0 0 0 -.58.12 7.35 7.35 0 0 0 -4.56 3.71 4.77 4.77 0 0 1 4.88 4.87 4.74 4.74 0 0 1 -.35 1.86 5.09 5.09 0 0 1 -1.74 2.08 4.63 4.63 0 0 1 -2.79.93 4.09 4.09 0 0 1 -3-1.16 4.87 4.87 0 0 1 -1.74-2.78v-.23a.11.11 0 0 1 -.12-.12v-.81a4.81 4.81 0 0 1 .12-.93 5.33 5.33 0 0 1 .46-2.2 9.76 9.76 0 0 1 1.28-2.56 13.33 13.33 0 0 1 2.55-2.55c.15-.15.27-.23.35-.23v-.12a2.48 2.48 0 0 0 .4-.23 3.76 3.76 0 0 1 .41-.23l.41-.23a2.48 2.48 0 0 1 .4-.23.31.31 0 0 0 .23-.12 5.72 5.72 0 0 1 .82-.35 5.78 5.78 0 0 0 .81-.23 19 19 0 0 1 5.57-.93 14.91 14.91 0 0 1 5.33.81h.23a.35.35 0 0 0 .24.12c.38.15.77.33 1.16.52s.77.37 1.15.52.74.47 1 .7a8.41 8.41 0 0 1 .93.81 20.29 20.29 0 0 1 3.13 3.94 10.84 10.84 0 0 1 .87 2.38 17.14 17.14 0 0 1 .4 2.5v34a2.49 2.49 0 0 0 .82 2 3.09 3.09 0 0 0 2.09.81.35.35 0 0 0 .23-.12h.58a13.58 13.58 0 0 1 -1.86 1.28 2 2 0 0 1 -.58.17 2.09 2.09 0 0 0 -.58.18l-1.09.19h-.58a1.57 1.57 0 0 1 -.69.11h-.24a4.56 4.56 0 0 1 -1.31-.11zm-7.89-4.64a6.39 6.39 0 0 0 1.71-4.56v-22.82l-.23.24-.23.23-.47.46a2.64 2.64 0 0 0 -.58.46l-.23.24a1.5 1.5 0 0 1 -.23.17.91.91 0 0 0 -.23.17.94.94 0 0 1 -.24.18 1.5 1.5 0 0 0 -.23.17 2.33 2.33 0 0 0 -.81.58 1.93 1.93 0 0 1 -.46.35 1.79 1.79 0 0 0 -.47.35l-.11.12a.33.33 0 0 0 -.24.11l-.23.23-.35.35a.7.7 0 0 0 -.46.46l-.35.35a18.29 18.29 0 0 0 -2 2.32q-.81 1.17-1.62 2.55a14.53 14.53 0 0 0 -.82 1.4q-.35.69-.81 1.5a2.94 2.94 0 0 0 -.35 1.28c-.07 0-.11 0-.11.12a18 18 0 0 0 -.7 4.17 11.29 11.29 0 0 0 .47 4.64 5.49 5.49 0 0 0 .69 2.21 6.06 6.06 0 0 0 2.21 2.78 5.21 5.21 0 0 0 3.24 1 5.51 5.51 0 0 0 4.24-1.81z"/><path d="m324.67 78.41c-.62.39-1.25.76-1.91 1.11a13 13 0 0 1 -2.15.87 12.39 12.39 0 0 1 -4.52.81 12.87 12.87 0 0 1 -5.57-1.2 16 16 0 0 1 -4.64-3.13 13.59 13.59 0 0 1 -3.13-4.53 12.55 12.55 0 0 1 -1.16-5.45v-22.35a12.83 12.83 0 0 1 1.16-5.54 15.3 15.3 0 0 1 3.13-4.53 15.82 15.82 0 0 1 4.64-3.13 14.5 14.5 0 0 1 5.57-1 14.29 14.29 0 0 1 8.58 2.66v-29a1.29 1.29 0 0 0 -.11-.69 4.51 4.51 0 0 0 -1.05-2.09 4.4 4.4 0 0 0 -2.09-1v-.22h12.42v78.76a3.81 3.81 0 0 0 2.9 2.32v.12h-12.07zm-2.2-2.78a6.17 6.17 0 0 0 2.2-4.18v-31.89a6.54 6.54 0 0 0 -6.73-5.92 6.35 6.35 0 0 0 -4.63 2 6.48 6.48 0 0 0 -2 4.76v30.36a6.75 6.75 0 0 0 6.61 6.61 6.65 6.65 0 0 0 4.55-1.74z"/><path d="m350.19 80.15a13.15 13.15 0 0 1 -5-3.48 13.15 13.15 0 0 1 -3.48-5 16.54 16.54 0 0 1 -1.28-6.27v-19a16.45 16.45 0 0 1 1.28-6.26 15.7 15.7 0 0 1 3.5-5.14 15.32 15.32 0 0 1 5-3.36 16.54 16.54 0 0 1 6.27-1.28h.11a16.26 16.26 0 0 1 6.15 1.28 11.82 11.82 0 0 1 2.73 1.45 29.7 29.7 0 0 1 2.36 1.91 15.24 15.24 0 0 1 4.64 11.37v10.93h-22.86v13a.46.46 0 0 0 .12.35v.47a9.57 9.57 0 0 0 3.48 5.22 9.15 9.15 0 0 0 5.8 2.32h.58a10.35 10.35 0 0 0 10-8.36h2.66a16 16 0 0 1 -5.1 7.31 11.48 11.48 0 0 1 -3.94 2.67 13.85 13.85 0 0 1 -3.25.81h-.47c0 .08 0 .12-.11.12h-.58a.48.48 0 0 1 -.35.11h-1.28a.63.63 0 0 1 -.46.12h-.23a16.54 16.54 0 0 1 -6.29-1.29zm13.69-40.15a6.32 6.32 0 0 0 -1.88-4.62 7.85 7.85 0 0 0 -4.64-2.32h-.82a7.44 7.44 0 0 0 -5.1 2 6.82 6.82 0 0 0 -2.09 5v12.6h14.5z"/><path d="m380.24 78.18v-74.82a4.77 4.77 0 0 0 -2.44-3.24h11.83v78.29a5 5 0 0 0 2.21 3h-14a4.47 4.47 0 0 0 2.4-3.23z"/><path d="m412 112.63h-14.25a4.46 4.46 0 0 0 2.44-3.24v-75.75a4.47 4.47 0 0 0 -2.44-3.25h11.83v2.44a.66.66 0 0 1 .47-.23 16.46 16.46 0 0 1 8.58-2.21 19.07 19.07 0 0 1 7.31 1.39 19.59 19.59 0 0 1 10 10 19.67 19.67 0 0 1 1.39 7.31v14.13a18.18 18.18 0 0 1 -1.39 7.19 19.59 19.59 0 0 1 -10 10 16.74 16.74 0 0 1 -7.31 1.5 16 16 0 0 1 -8.93-2.66v30.16a5.18 5.18 0 0 0 2.3 3.22zm13.46-36.77a9 9 0 0 0 2.78-6.61v-26.45a10.07 10.07 0 0 0 -.7-3.82 18.4 18.4 0 0 0 -2.08-3.14 18.2 18.2 0 0 0 -3.14-2.08 9.45 9.45 0 0 0 -3.59-.7 8.07 8.07 0 0 0 -5.8 2.2 9.77 9.77 0 0 0 -3.25 5.57v30.39a9.13 9.13 0 0 0 3.32 5.22 8.08 8.08 0 0 0 5.8 2.21 9.7 9.7 0 0 0 6.68-2.79z"/><path d="m442.18 81.43v-.12a3.82 3.82 0 0 0 2.9-2.32v-75.63a4.46 4.46 0 0 0 -1-2.08 4.46 4.46 0 0 0 -2.09-1v-.16h12.41v33.06a13.59 13.59 0 0 1 8.58-2.79 13.17 13.17 0 0 1 5.69 1.16 21.41 21.41 0 0 1 2.49 1.34 11.77 11.77 0 0 1 2.15 1.68 19 19 0 0 1 3.13 4.52 12.87 12.87 0 0 1 1.16 5.57v34.34a3.81 3.81 0 0 0 2.9 2.32v.12h-15.7v-.12a3.1 3.1 0 0 0 2.43-1.5.35.35 0 0 0 .12-.24.35.35 0 0 1 .12-.23.31.31 0 0 0 .11-.17s0-.1.12-.18v-38.4a6.74 6.74 0 0 0 -11.14-5.1 7 7 0 0 0 -2.2 4.29v39.32a3.54 3.54 0 0 0 2.78 2.2v.12z"/><path d="m485.79 78.18v-44.54a4.79 4.79 0 0 0 -2.43-3.36h2.43v-.12h9.28v48a4.5 4.5 0 0 0 2.44 3.25h-14.15a4.46 4.46 0 0 0 2.43-3.23zm8.21-54.28a4.93 4.93 0 0 1 -3.6 1.5 4.56 4.56 0 0 1 -3.4-1.5 4.56 4.56 0 0 1 -1.5-3.48 4.93 4.93 0 0 1 1.5-3.6 4.72 4.72 0 0 1 3.48-1.39 5.38 5.38 0 0 1 3.6 1.39 5.38 5.38 0 0 1 1.39 3.6 4.72 4.72 0 0 1 -1.47 3.48z"/><path d="m529.06 81.2c-.62-.16-1-.27-1.28-.35a8.27 8.27 0 0 1 -3.78-3.36 14.13 14.13 0 0 1 -4 2.78 11.65 11.65 0 0 1 -4.87 1 11.11 11.11 0 0 1 -2.67-.34 11.62 11.62 0 0 1 -6.15-3.48 12.23 12.23 0 0 1 -3.47-6.62 9 9 0 0 1 -.35-2.66v-.7a14.69 14.69 0 0 1 1-5.34 13.57 13.57 0 0 1 2.67-4.29q.35-.47.69-.87c.24-.27.51-.56.82-.87l1.74-1.39.92-.7a1 1 0 0 0 .35-.23l.23-.23a.35.35 0 0 0 .24-.12 1.33 1.33 0 0 1 .58-.34.31.31 0 0 1 .27-.09l1.74-1 .69-.47.7-.46a.35.35 0 0 1 .23-.12l.12-.11.46-.24a1.74 1.74 0 0 0 .47-.34 1.52 1.52 0 0 0 .34-.23 1.51 1.51 0 0 1 .35-.24l1.39-1c.16-.16.35-.33.58-.52a6.55 6.55 0 0 0 .58-.53l1.4-1a6.06 6.06 0 0 1 .52-.46 6.1 6.1 0 0 0 .52-.47c.16-.15.33-.31.52-.46a4.88 4.88 0 0 0 .52-.47v-6.02a8.18 8.18 0 0 0 -2.43-4.18 8.35 8.35 0 0 0 -4.64-1.74h-1.39a2.19 2.19 0 0 1 -.7.12 1.28 1.28 0 0 0 -.58.12 7.33 7.33 0 0 0 -4.52 3.71 4.75 4.75 0 0 1 4.87 4.87 4.74 4.74 0 0 1 -.35 1.86 5.09 5.09 0 0 1 -1.74 2.08 4.63 4.63 0 0 1 -2.78.93 4.09 4.09 0 0 1 -3-1.16 4.87 4.87 0 0 1 -1.74-2.78v-.23a.11.11 0 0 1 -.12-.12v-.81a4.81 4.81 0 0 1 .12-.93 5.49 5.49 0 0 1 .46-2.2 10.09 10.09 0 0 1 1.28-2.56 13.33 13.33 0 0 1 2.55-2.55c.16-.15.27-.23.35-.23v-.12a2.6 2.6 0 0 0 .41-.23 3.55 3.55 0 0 1 .4-.23l.41-.23a2.48 2.48 0 0 1 .4-.23.35.35 0 0 0 .24-.12 6.18 6.18 0 0 1 .81-.35 5.08 5.08 0 0 0 .81-.23 19 19 0 0 1 5.57-.93 14.91 14.91 0 0 1 5.33.81h.24a.31.31 0 0 0 .23.12c.39.15.77.33 1.16.52s.77.37 1.16.52.73.47 1 .7a8.41 8.41 0 0 1 .93.81 20.29 20.29 0 0 1 3.13 3.94 10.84 10.84 0 0 1 .87 2.38 17.15 17.15 0 0 1 .41 2.5v34a2.48 2.48 0 0 0 .81 2 3.11 3.11 0 0 0 2.09.81.33.33 0 0 0 .23-.12h.59a12.92 12.92 0 0 1 -1.86 1.28 1.91 1.91 0 0 1 -.58.17 2.09 2.09 0 0 0 -.56.17l-1.16.23h-.58a1.54 1.54 0 0 1 -.69.11h-.23a4.65 4.65 0 0 1 -1.28-.14zm-7.89-4.64a6.39 6.39 0 0 0 1.74-4.56v-22.82l-.23.24-.23.23-.47.46a2.9 2.9 0 0 0 -.58.46l-.23.24a.91.91 0 0 1 -.23.17 1.13 1.13 0 0 0 -.23.17 1.12 1.12 0 0 1 -.23.18 1.18 1.18 0 0 0 -.24.17 2.33 2.33 0 0 0 -.81.58 1.75 1.75 0 0 1 -.46.35 1.79 1.79 0 0 0 -.47.35l-.11.12a.3.3 0 0 0 -.23.11l-.24.23-.34.35a.7.7 0 0 0 -.47.46l-.35.35a18.29 18.29 0 0 0 -2 2.32q-.81 1.17-1.62 2.55a12.6 12.6 0 0 0 -.81 1.4c-.24.46-.51 1-.82 1.5a2.92 2.92 0 0 0 -.34 1.28.11.11 0 0 0 -.12.12 18 18 0 0 0 -.7 4.17 11.29 11.29 0 0 0 .47 4.64 5.82 5.82 0 0 0 .69 2.21 6.06 6.06 0 0 0 2.21 2.78 5.24 5.24 0 0 0 3.25 1 5.5 5.5 0 0 0 4.2-1.81z"/><path d="m587.41 81.31v-2.55a18.05 18.05 0 0 1 -9.4 2.55 16.13 16.13 0 0 1 -7.07-1.5 17.41 17.41 0 0 1 -5.8-4 18.09 18.09 0 0 1 -3.95-5.81 16.2 16.2 0 0 1 -1.51-7.08v-44.48a16.48 16.48 0 0 1 1.51-7.19 18.5 18.5 0 0 1 3.95-5.8 19.3 19.3 0 0 1 2.72-2.26 25.87 25.87 0 0 1 3.08-1.8 17.7 17.7 0 0 1 7.06-1.39 18.13 18.13 0 0 1 17.4 12.18 3 3 0 0 1 .35.93c.08.08.12.38.12.93a4 4 0 0 1 -1.4 3.24 4.57 4.57 0 0 1 -3.36 1.4 4 4 0 0 1 -3.71-1.86 4.63 4.63 0 0 1 -.93-2.78 4.47 4.47 0 0 1 .93-2.67 8.22 8.22 0 0 0 -2.79-6 9.09 9.09 0 0 0 -6.38-2.44 8.52 8.52 0 0 0 -6.23 2.52 8.71 8.71 0 0 0 -2.67 6.38v57.54a9.12 9.12 0 0 0 8.93 8.93 8.84 8.84 0 0 0 6.5-2.67 8.58 8.58 0 0 0 2.67-6.26v-22.74a8.38 8.38 0 0 0 -3-3.83 7.81 7.81 0 0 0 -4.87-1.51h-.7a2.47 2.47 0 0 1 -.81.12v-.69h21v.46a7.4 7.4 0 0 0 -2.44 5.57v34.56z"/><path d="m604.69 78.18v-74.82a4.75 4.75 0 0 0 -2.43-3.24h11.83v78.29a5 5 0 0 0 2.2 3h-14a4.46 4.46 0 0 0 2.4-3.23z"/><path d="m645.29 31.67a20.5 20.5 0 0 1 5.92 4.06 21.93 21.93 0 0 1 3.94 5.91 18.61 18.61 0 0 1 1.39 7.19v13.92a18.09 18.09 0 0 1 -1.39 7.2 21.93 21.93 0 0 1 -3.94 5.91 18.24 18.24 0 0 1 -5.92 4 17.74 17.74 0 0 1 -7.31 1.5 16.48 16.48 0 0 1 -7.19-1.5 17.51 17.51 0 0 1 -5.8-4 17.91 17.91 0 0 1 -3.94-5.86 16.35 16.35 0 0 1 -1.51-7.2v-13.97a16.34 16.34 0 0 1 1.51-7.19 17.91 17.91 0 0 1 3.95-5.91 18.2 18.2 0 0 1 2.73-2.26 25.74 25.74 0 0 1 3.07-1.8 18 18 0 0 1 7.2-1.39 19.47 19.47 0 0 1 7.29 1.39zm-.46 4.06a9.17 9.17 0 0 0 -6.73-2.79 8.42 8.42 0 0 0 -6.5 2.79 9.18 9.18 0 0 0 -2.78 6.73v26.33a9.16 9.16 0 0 0 2.78 6.72 8.42 8.42 0 0 0 6.5 2.79 9.17 9.17 0 0 0 6.73-2.79 9.64 9.64 0 0 0 2.66-6.72v-26.33a9.65 9.65 0 0 0 -2.66-6.73z"/><path d="m660 81.55v-.12a3.83 3.83 0 0 0 2.9-2.32v-75.63a4.44 4.44 0 0 0 -1-2.09 4.44 4.44 0 0 0 -2.09-1v-.16h12.39v33.06a13.64 13.64 0 0 1 8.58-2.78 13 13 0 0 1 5.69 1.16 21.33 21.33 0 0 1 2.53 1.33 11.77 11.77 0 0 1 2.15 1.68 18.92 18.92 0 0 1 3.13 4.53 12.83 12.83 0 0 1 1.16 5.56v22.51a12.55 12.55 0 0 1 -1.16 5.45 16 16 0 0 1 -3.13 4.52 15.84 15.84 0 0 1 -4.64 3.14 13.17 13.17 0 0 1 -5.69 1.16 13.59 13.59 0 0 1 -8.58-2.79v2.79zm23.55-5.8a6.51 6.51 0 0 0 2-4.76v-30.27a6.75 6.75 0 0 0 -11.14-5.11 7 7 0 0 0 -2.2 4.29v31.9a6.21 6.21 0 0 0 2.19 4.2 6 6 0 0 0 4.41 1.74 6.51 6.51 0 0 0 4.76-1.99z"/><path d="m712.57 80.15a13.11 13.11 0 0 1 -5-3.48 13.15 13.15 0 0 1 -3.48-5 16.54 16.54 0 0 1 -1.28-6.27v-19a16.45 16.45 0 0 1 1.28-6.26 15.7 15.7 0 0 1 3.49-5.14 15.26 15.26 0 0 1 5-3.36 16.49 16.49 0 0 1 6.26-1.28h.16a16.17 16.17 0 0 1 6.14 1.28 11.82 11.82 0 0 1 2.73 1.45 28 28 0 0 1 2.33 1.91 15.7 15.7 0 0 1 3.48 5.11 16.17 16.17 0 0 1 1.16 6.26v10.93h-22.84v13a.51.51 0 0 0 .11.35v.47a9.57 9.57 0 0 0 3.48 5.22 9.2 9.2 0 0 0 5.8 2.32h.61a10.35 10.35 0 0 0 10-8.36h2.67a16.11 16.11 0 0 1 -5.11 7.31 11.39 11.39 0 0 1 -3.94 2.67 13.85 13.85 0 0 1 -3.25.81h-.46a.11.11 0 0 1 -.12.12h-.58a.46.46 0 0 1 -.35.11h-1.27a.68.68 0 0 1 -.47.12h-.23a16.49 16.49 0 0 1 -6.32-1.29zm13.68-40.15a6.28 6.28 0 0 0 -1.85-4.64 7.82 7.82 0 0 0 -4.64-2.32h-.76a7.45 7.45 0 0 0 -5.11 2 6.81 6.81 0 0 0 -2.08 5v12.62h14.49z"/></g></svg>