<svg id="Layer_1" data-name="Layer 1" xmlns="http://www.w3.org/2000/svg" viewBox="0 0 855 848"><defs><style>.cls-1,.cls-3,.cls-4,.cls-5,.cls-6{fill:#fff;}.cls-2{fill:none;stroke:#000;stroke-miterlimit:10;stroke-width:3.15px;}.cls-3{font-size:93px;}.cls-3,.cls-6{font-family:AntiqueBookCover, Antique Book Cover;}.cls-4{opacity:0.33;}.cls-5{opacity:0.66;}.cls-6{font-size:48.65px;}</style></defs><circle cx="426.16" cy="423.94" r="323.5"/><g id="nuMGhM"><path class="cls-1" d="M466.71,389.5c1.75-1.88,3.18-4.28,5.29-5.52,5.08-3,10.48-5.4,15.47-7.92,4.36,3.78,8.87,7.82,13.53,11.67,2.36,1.95,14.72.65,16.3-1.69a3.22,3.22,0,0,0-.2-3c-1.65-2-3.35-4.21-5.53-5.51-7.52-4.47-15.26-8.58-22.9-12.86a4.93,4.93,0,0,1-1.82-1.52c-7.51-12.47-20.45-17.29-32.54-23.31-.3-.15-.65-.44-.91-.37-10.93,2.81-19.7-3.25-29-7.13a31.93,31.93,0,0,1-4.69-3,3.5,3.5,0,0,0-.26.51c2.56-.1,5.13-.15,7.69-.33a59.62,59.62,0,0,0,8.69-.83c2.66-.59,4-2.44,3.82-5.49a23,23,0,0,1,.75-6.31c.51-2.45,2.61-5.82,1.69-7.08-2.62-3.59-6-7.83-9.88-9-6.82-2.1-12.66-4.47-16-11.17a4.68,4.68,0,0,0-2.49-2.28c-10.52-2.75-21.05-5.5-31.65-7.91-2.76-.62-9,5.81-8.78,8.7a4.85,4.85,0,0,0,1.8,2.73c3.56,3.13,7.22,6.16,10.8,9.18-4.89,4.15-9.58,3-11.69-3.28-.69-2-1.59-4-2.1-6.1-.62-2.54-1.38-4.27-4.63-3.65-3.07.6-4.8,1.66-4.33,5.21a21.44,21.44,0,0,1-.15,7.37c-.29,1.3-2,2.29-3.09,3.42-.85-1.09-2-2.05-2.52-3.28-2-5-3.82-10.16-5.74-15.23a3.67,3.67,0,0,0-1-1.68c-5.28-3.75-10.37-7.85-16-11-3.94-2.2-13.75,3.94-14.45,8.67-.15,1.07,1.49,2.49,2.46,3.61,2.17,2.52,4.33,5.07,6.71,7.38a37.7,37.7,0,0,0,6.7,5.42c2.36,1.41,4.31,2.58,2.69,6.27-15.26-8.79-32.26-14.52-45.11-27.22-1.86-1.83-2.89-4.63-3.92-7.15-1.8-4.42-3.1-9.07-5.05-13.42-.62-1.37-2.66-3-4-3a71.52,71.52,0,0,0-14.09,1.28c-4.07.83-7.85,3-11.9,4-3.45.82-5.21,2.46-5.35,6-.19,4.82-2,7.39-7.58,6.94-6.31-.51-11.23,3.59-12.91,9.72-.88,3.18-1.53,6.43-2.12,9.69-.84,4.59-2.9,5.71-7.25,3.73l-7.22-3.3c.16,6,3,10.2,7.59,11.23,7.9,1.78,15.81,3.52,23.78,4.91s10.72,7.6,12.91,14.07c3.27,9.68,2.25,19.71,1.26,29.57-1.21,12.14-2,24.42,2.08,35.9,2.94,8.24,1.72,14.58-1.73,22.2-7.84,17.35-8.82,35.8-5.65,54.51.27,1.62.26,3.3.43,4.94.78,7.41,1.87,14.59,5.7,21.34,7.83,13.81,14.74,28.16,22.73,41.88,3.91,6.72,10.2,11,19.41,10-11.23-8.55-14.75-21.14-19.67-34.3,1.61.69,2.42.78,2.58,1.16,6.59,15.09,16,28.43,25,42.09,1.86,2.83,1.93,7.07,2.18,10.7s5.56,9.8,10.21,11.66c6.7,2.68,13.78,4.95,19.7,8.9,7.78,5.19,16.13,7.24,25.05,8.48s18,2.65,26.88,4.57c13.29,2.88,25.11,8.38,32,21.11,1.75,3.23,4.32,4.71,7.88,5.19,4.75.63,9.43,2,14.19,2.32,3.68.23,7.46-.59,11.16-1.17s7.3-1.42,11.73-2.3c.77,6.58,1.68,12.43,2.05,18.32.22,3.36-1.83,5.61-4.89,7.35-7.24,4.12-9.06,10.32-8.32,18.72.79,8.92,5.28,13.82,13.29,16.16,15,4.39,27,13.71,39,23.21a10.26,10.26,0,0,0,4.73,2.35c5.82.75,7.1,2.37,6.22,8.4-.47,3.2-.68,6.44-1.07,10.35-7.75,2.23-16.05,5-24.54,7-58.39,13.53-116.37,12.07-173.18-7.49-89.72-30.9-153.71-90.33-191.48-177.55a298.53,298.53,0,0,1-23.08-92.16c-6.92-76.09,11.27-145.64,53.87-208.76a308.43,308.43,0,0,1,77.17-78.67c4-2.83,8.29-4.38,11.58-.71,2.43,2.72,3,7.22,3.95,11.05.19.82-1.66,2.24-2.7,3.23a16.9,16.9,0,0,1-3.53,2.74c-6.78,3.6-10,8.07-6.11,16.11,2,4-2,8.54-5.22,11.84-4.54,4.6-7.84,10.46-11.42,15.94-.38.57.69,2.44,1.49,3.36A40.71,40.71,0,0,0,234,237a11.21,11.21,0,0,0,6.52,2c4.67-.23,5.39.38,3.8,4.9-1.17,3.31-2.4,6.6-4.1,11.23,6.5-1.93,11.51-3.07,14.65-7.54,4.75-6.77,8.92-14,14-20.48,3.93-5,7-9.68,5.33-16.49-.26-1.06,2.5-3.31,4.26-4.32,4.08-2.35,8.56-4,12.55-6.54,1-.62,1.55-3.62.95-4.86-2.13-4.42.37-5.89,3.68-7.44a144.66,144.66,0,0,0,13.84-7.14c1.16-.7,2.05-3.24,1.76-4.67-.65-3.2.55-4.61,3.33-5.53a96.19,96.19,0,0,0,10.67-3.87c3.61-1.69,6.91-4.05,10.48-5.84,2.3-1.14,4.86-1.74,7.28-2.65,3.26-1.22,4.08,1.56,6.1,3,3.1,2.16,7.53,3.18,11.42,3.27a42.44,42.44,0,0,0,27.6-8.9c6.34-4.83,14.7-5.38,22.78-4a12.39,12.39,0,0,0,13.29-6.17c2-3.89,4.21-4.73,8.31-2.83,8.56,4,17.44,7.22,26,11.17A105.67,105.67,0,0,1,472,161.08c.85.56,1,2.57,1,3.91,0,2.64,1.38,4,3.69,3.21,3.42-1.16,6.61-3,9.94-4.44,1.1-.47,2.52-1.14,3.46-.8a3.79,3.79,0,0,1,2.12,2.79c0,.83-1.34,1.9-2.32,2.5-5.14,3.15-10.41,6.1-15.51,9.32-2.31,1.45-2.19,3.21-.19,5.27,4.55,4.7,9.26,8.86,16,10.12,4.05.75,7.93,2.39,12,3.3,8.21,1.87,14.94,5.8,20.12,12.64,6.12,8.08,15.24,8.34,24.25,8.35a3.23,3.23,0,0,0,2.44-1.94c.54-5.35,4.6-7.73,8.28-10.52a13.27,13.27,0,0,0,1.85-2.21L526.53,185.9c3.86-3,3.34-6.34-.59-10a18.79,18.79,0,0,1,3,.41c2.21.68,4.32,1.85,6.57,2.2,8,1.27,14.89,3.81,16.92,12.88a.73.73,0,0,0,.3.38c10.67,7.89,14.85,19.85,19.85,31.35.94,2.16,3.39,3.73,5.33,5.36,3.2,2.7,6.55,5.24,9.84,7.84-3.44-1.11-6.85-2.31-10.32-3.31-8-2.31-16.93-2-23.79-7.68-3.43-2.84-5.72-.91-8.12,1.2-2.87,2.54-.56,4.79,1,6.33,6.47,6.34,11,13.91,15.11,21.87,3.21,6.14,13.14,8.94,18.93,5.93-1.29-6.18-7-8.06-12.14-11.82L592,253.72l-3.18-16c3.68,3.78,6.29,7.91,5.93,13.6a13.43,13.43,0,0,0,1.51,7.21c2,3.55,4.46,7.06,9.8,5.37,1.94-.61,4.27-.09,6.4.08,6.51.51,9.08,5.07,5.52,10.45a11.65,11.65,0,0,0-1.56,10.76,8.29,8.29,0,0,0,.33,1.45c.61,1.13,1,2.66,2,3.23,7.75,4.52,10.9,15.86,21.73,15.38,2.61-.11,5.07-3.5,7.43-5.25-1.59,8.06,4.36,13.85,8.49,20.15,4.23,6.48,7.17,12.88,8.05,20.87,2.89,26.28,12.51,50.12,29.62,70.41,6.15,7.3,13.82,13.64,24.68,11.91,1.73-.27,4-1.62,4.7-3.11,2.26-4.77,3.66-10,5.89-14.75a19.08,19.08,0,0,1,6.08-6.8C742,481.65,719.52,555.58,668.09,622c-2.22-9.14-.2-16.76,2.34-24.16,2.21-6.4,5.12-12.58,7.92-18.76,1.42-3.13.39-4.59-2.37-6.32-6.29-4-11.21-2.84-17.68.86-11,6.27-23,10.67-34.69,15.59-1.3.55-3.42-.29-4.94-1a11.84,11.84,0,0,1-3.89-3.05c-6.54-7.6-14.23-8.56-23.55-5.57-13,4.17-26.1,2.63-39.18-.51-2.91-.69-6.4.16-9.43,1-6.5,1.78-12.93,3.87-19.29,6.12-5.06,1.8-9.89,4.3-15,6a14,14,0,0,1-8,.5c-8.93-2.76-14.83,1.63-20.26,7.66a7.4,7.4,0,0,0-1.57,1.91c-4.82,11.62-15.14,10.86-24.85,10.73-8.64-.11-13.28-6-12.54-14.41,1-11-.86-13.6-12.81-15.47-4.77-.75-9.83.13-14.73.58-4.31.4-5.27-.64-4.62-4.95a85.18,85.18,0,0,0,1-12.24c0-7.85-6.42-11.13-13.43-7.21a15.18,15.18,0,0,0-7.17,7.69c-1,2.26-4.53,4.55-7.09,4.75-7.12.57-12.83-3.76-18.62-7.25-.84-.51-1.22-1.87-1.67-2.9-4.7-10.73-4.46-21.17,1.77-31.28,3.3-5.37,9.14-6.08,14.37-7.61a14.22,14.22,0,0,1,7.79.43c4.61,1.42,8.35.43,12-2.43,6.94-5.45,20-4.4,26.33,1.93,3.51,3.53,7.15,6.92,10.54,10.55,2.59,2.78,5.05,1.41,6.9-.36a6.3,6.3,0,0,0,1.61-5.2,35.31,35.31,0,0,0-4.41-9.36,20.9,20.9,0,0,1,2-26.3c2-2.21,3.9-4.52,6-6.64,5.23-5.33,7.76-10.82,6.11-19s-.4-17.49,4.93-23.71c4.92-5.74,5.26-12.49,8.23-18.51,1.89-3.84,3.85-6.44,8.7-4.88a4.57,4.57,0,0,0,3.81-1.09c4.68-4.61,9-9.53,13.73-14.13,2.15-2.1,3.29-3.68,1.21-6.69s-3.88-4.33-7.31-2.63a14.23,14.23,0,0,1-4.66,1.59c-1.14.13-3.3-.43-3.42-1-1.49-7.05-6.88-5.88-11.75-5.88Zm39.19-85.8c-.11-.68-.23-1.37-.34-2.05-3.15-.6-6.3-1.24-9.46-1.78-6.05-1-8.7-3.51-9.66-9.53-1.05-6.54-1.62-13.16-2.93-19.64-1-5.17-.86-9.65,2.69-14,2.57-3.11,1.51-13.33-1.72-15.64-10.74-7.69-21.46-15.42-35.27-17A71.87,71.87,0,0,1,433,219.88c-11.53-4.22-27,1.09-33.11,11.64a21,21,0,0,1-3.45,3.82c-2.57-1.56-4.21-3.4-5.87-3.42-6.5,0-11.49,3.68-16.16,7.71a3.25,3.25,0,0,0-.64,3c3.24,4.9,1.26,9.89.64,14.89-.17,1.4-.24,3.24.49,4.26,4.49,6.21,10.88,9.08,18.29,10.27,2.51-6.24-.11-13.13,4.26-20a24.08,24.08,0,0,0,16.11,14.6c10.5,3.13,19.85,8.15,28.79,14.1,2.25,1.5,3.95,4.17,5.25,6.65,3.25,6.22,2.68,15.21,12.41,16.56a1.12,1.12,0,0,1,.77.57c3.17,8.68,11.81,8.53,18.51,11.48,1.12.49,2.85.79,3.81.27C490.78,312.23,498.32,307.93,505.9,303.7Zm-11.71-51.82-.77.57c2.72,4.21,4.91,8.93,8.31,12.49,4.42,4.62,9.37,3.11,12.72-2.24s4.62-11.17,4.7-17.41c.06-4.85-6.35-9.85-11-8.47-6.7,2-8.6,9.13-13.83,12.69C493.88,249.77,494.2,251.06,494.19,251.88ZM421.47,555.55c3.08.26,4.76.58,6.43.52,10.31-.42,20.7-.36,29.86,5,6.05,3.52,11.47,2.5,16.73-.44,1.81-1,2.66-4.21,3.28-6.58.14-.52-2.45-2.11-4-2.64a25.56,25.56,0,0,0-7.22-1.6c-10.52-.46-21.07-.39-31.56-1.15C429.49,548.23,426.08,550.81,421.47,555.55ZM511,557.41c-4-2-7.92-2.66-9.44-5-2.26-3.45-5-3.85-7.93-3.11a70.54,70.54,0,0,0-12.84,5c-2.74,1.31-2.21,7.24.72,8.14C491.72,565.57,501.13,563.45,511,557.41Z"/><path class="cls-1" d="M419.47,329.89a3.5,3.5,0,0,1,.26-.51c-1.55.32-3.13,1-4.64.88-7.58-.62-10.32,2.28-8.73,9.71,1.15,5.33,1.1,11.67,4.1,15.69,4.5,6,3.4,12.12,3.6,18.42.15,4.62.37,9.23.59,14.68-6.21-3.3-11.21-7.08-12.56-13.87-.81-4.1-2.81-6.13-6.74-6.56-4.08-.45-8.17-.95-12.27-1.21-5.48-.34-8.58-3.15-9.74-8.61a30.56,30.56,0,0,1,4.47-23.68c4.21-6.51,9.21-12.49,13.79-18.76,1.65-2.25,3.12-4.64,4.65-7,2-3.1,2.23-5.84-2.45-7.67,11.2-.28,13.59,1.8,16,8.5,2.88,8-4.51,11.2-7.24,17.83,3.75,0,6.64-.27,9.46.09A51.19,51.19,0,0,1,419.47,329.89Z"/><path class="cls-1" d="M621.63,234.11c2.91-.58,4.82-1.15,6.77-1.32,4.26-.36,5.35-3.39,4.77-6.62-.27-1.54-2.68-3-4.44-3.88-2-1-4.44-1.16-7-2.71,2-.62,3.94-1.31,6-1.85,6-1.58,8.87-4.44,8.66-8.52-.16-3.28-1.2-5.77-4.78-6.56-6.49-1.44-8.67-6.44-10-12.2-1-4.42-2.3-8.79-3.59-13.69,6,5.32,12.14,10.61,18,16.13.91.85.79,2.79,1.17,4.22.73,2.83,1.09,5.85,2.3,8.46,3.12,6.76,3.25,6.76-3.4,11.43,3.66,3.64,6.94,7.46,10.78,10.59,4.29,3.5,5.55,7.95,6,13.44-1.33.14-2.39.28-3.45.35-5.4.37-6.86,2-5.93,7.15,1.28,7.14,2.79,14.25,4.16,21.38.23,1.25.24,2.54.37,4-.83,0-1.47.2-1.69,0-6.71-6.68-14.29-12.63-17-22.48-1-3.75-3.26-7.18-4.91-10.77C623.61,238.71,622.79,236.76,621.63,234.11Z"/><path class="cls-1" d="M466.71,389.5l-.22-.18q-3.21,4.67-6.4,9.34l-1.51-1.17C461.27,394.81,461.48,390,466.71,389.5Z"/></g><path d="M488.44,737.29C316.62,771.43,149.65,660.51,114.6,489.15,78.47,312.51,195.24,145.7,365.74,112.64,534.7,79.87,705,188.76,738.89,365.32,772.07,538.29,658.83,703.45,488.44,737.29Zm21.69-191.56c-3.57-14.32-7-28.18-10.5-42.18-1.21.24-1.84.33-2.44.49-13.41,3.5-26.76,7.21-40.23,10.43-9.33,2.24-18.79,3.9-28.23,5.62-2.77.5-3.66,1.45-3.1,4.36,2.25,11.71,4.41,23.44,6.33,35.21.59,3.65,2.17,4.41,5.52,3.67,16.32-3.62,32.71-6.93,49-10.72C494.24,550.8,501.83,548.17,510.13,545.73Zm-23.77-89.05c-3.19.85-5.9,1.65-8.64,2.29-19.05,4.44-38.1,8.9-57.18,13.19-2.52.56-3.54,1.1-3,4,2.26,12.77,4.34,25.57,6.38,38.37.41,2.63,1.15,3.74,4.21,3.29,23.16-3.39,45.68-9.43,68.05-16.09,2.38-.71,2.26-2,1.77-3.79-2.54-9.38-5-18.77-7.59-28.14C489.13,465.44,487.73,461.17,486.36,456.68Zm-142.2,22.45c1,15.14,2,30.15,3.08,45.61,4.18-.06,7.78.11,11.33-.18,20-1.65,39.95-3.42,59.93-5.1,2.95-.25,3.94-1.38,3.34-4.51q-3.54-18.72-6.6-37.54c-.53-3.26-1.52-4.15-5-3.72q-19.83,2.47-39.76,4.16C362,478.58,353.48,478.7,344.16,479.13Zm3.18,48.22c1.74,14,3.46,27.36,5,40.71.29,2.42,1.81,2.55,3.53,2.53,4.27-.06,8.56,0,12.81-.35,19.21-1.72,38.4-3.65,57.62-5.35,3.81-.34,4.24-2,3.57-5.35-2.12-10.69-4-21.44-5.89-32.18-1.14-6.5-1.05-6.2-7.67-5.51-17.12,1.78-34.27,3.33-51.42,4.81C359.4,527.14,353.84,527.11,347.34,527.35ZM489,456.54l12.1,43.21a31.74,31.74,0,0,0,3.47-.7A517.07,517.07,0,0,0,566.39,474c2.41-1.17,2.66-2.52,1.69-4.93-2.76-6.83-5.17-13.81-7.86-20.67-2.38-6.09-5-12.11-7.29-17.77ZM570.38,475c-1.66.64-2.72,1-3.75,1.46-13.31,5.73-26.56,11.61-40,17.13-6.69,2.77-13.67,4.81-20.46,7.34-1.93.71-4.9.64-3.91,4.4,2.57,9.65,4.88,19.37,7.35,29.05.85,3.36,1.86,6.68,3,10.59,6.85-2.37,13.56-4.3,20-7,16-6.65,31.86-13.65,47.8-20.45,2-.85,2.87-1.83,2.13-4.14C578.49,500.81,574.55,488.21,570.38,475ZM518.55,587.81l-7.91-39.68c-6.35,1.88-12.08,3.93-18,5.26q-27.71,6.27-55.51,12c-3,.63-3.84,1.68-3.21,4.69,2.22,10.54,4.38,21.1,6.2,31.71.65,3.73,2.25,4.31,5.53,3.59,16.35-3.61,32.76-6.92,49.05-10.72C502.78,592.81,510.63,590.12,518.55,587.81ZM438.93,466.16l.19.72c14.5-3.93,29-7.89,43.51-11.77,2.1-.57,3.12-1.2,2.32-3.73-4.1-13-8.17-25.93-11.92-39-1-3.44-2.58-3-5.09-2.36-11.89,3.18-23.78,6.37-35.74,9.29-6.67,1.63-13.47,2.76-20.23,4-1.94.37-3,1-2.63,3.29q3.38,20.34,6.55,40.72c.39,2.53,1.52,3.18,4,2.65C426.19,468.62,432.57,467.43,438.93,466.16Zm-31.71-37.77c0-4.19-2.05-4.14-4.52-3.83-9.26,1.14-18.51,2.41-27.8,3.18-9.53.8-19.11,1.11-28.67,1.54-1.87.09-3.34.17-3.28,2.62q.56,20.76,1,41.51c.06,2.48,1.15,3.28,3.7,3.07q31.33-2.52,62.7-4.8c3.56-.26,3.77-2.13,3.27-5C411.4,453.63,409.26,440.58,407.22,428.39ZM439,606.19c-2.55-12.77-5-25-7.39-37.14-.48-2.4-2-2.1-3.83-1.89-11.45,1.35-22.89,2.91-34.38,3.81-12.25,1-24.54,1.34-36.82,1.83-3,.12-3.8,1.25-3.16,4.11.67,3,.87,6.16,1.45,9.22,1.69,8.76,3.47,17.5,5.29,26.64A500.79,500.79,0,0,0,439,606.19Zm-94.23-81.06c-.95-15.16-1.88-29.34-2.7-43.53-.16-2.94-2.13-2.74-4.05-2.82-10.08-.43-20.18-.55-30.22-1.35-10.54-.83-21-2.31-31.73-3.52a10.07,10.07,0,0,0-.56,2.19c-.37,13.18-.62,26.37-1.1,39.54-.11,2.78,1,3.62,3.46,3.91,10.41,1.21,20.78,2.81,31.22,3.67C320.8,524.18,332.55,524.5,344.78,525.13Zm4.68,45.42c.24-.54.45-.79.43-1-1.5-13.26-3.05-26.52-4.49-39.79-.24-2.22-1.31-2.56-3.32-2.69q-28.26-1.84-56.49-4c-3.57-.26-7.11-1-11-1.58,0,3.28,0,6.11.13,8.92q.76,14.92,1.69,29.85c.14,2.12.15,4.27,3.32,4.77A453.16,453.16,0,0,0,349.46,570.55ZM532.21,385c-1.39.58-2.32,1-3.25,1.37-17.26,7-34.51,14-51.81,20.86-1.93.77-2.71,1.41-2,3.62q6.19,20.06,12.14,40.17c.75,2.52,2.33,2,3.95,1.49,3.69-1.2,7.43-2.32,11-3.81,15.52-6.47,31-13.07,46.47-19.62,2.42-1,2.8-2.37,1.6-4.83-2.45-5-4.43-10.21-6.76-15.26C539.86,401,536.06,393.1,532.21,385ZM521.32,586.07c.81.13,1.08.26,1.3.19,2.72-.83,5.51-1.49,8.14-2.57,20-8.18,39.9-16.46,59.86-24.68,2-.84,2.56-2.13,2-4.29-1.25-5.3-2.15-10.69-3.46-16-1.63-6.63-3.52-13.19-5.34-19.93-1,.37-1.54.48-2,.7a487.18,487.18,0,0,1-65,26.48c-3.62,1.19-3.91,2.69-3.16,5.83,2.38,10.1,4.56,20.25,6.81,30.38C520.85,583.55,521.09,584.91,521.32,586.07ZM341.39,476.44c.09-1.08.18-1.58.17-2.08-.28-14.23-.59-28.47-.85-42.7,0-2.24-1.37-2.22-3.12-2.32-13.95-.82-27.89-1.68-41.83-2.73-4.87-.36-9.7-1.27-15.33-2-1.62,15.6-3.21,30.83-4.83,46.46A385.17,385.17,0,0,0,341.39,476.44Zm229.92-5.58a11.43,11.43,0,0,0,1.86-.49,343.4,343.4,0,0,0,53.55-33.59c.85-.66,1.2-3.12.68-4.21-5.47-11.43-11.17-22.75-16.84-34.09a15,15,0,0,0-1.44-2.21c-17.75,10.66-35,21-52.25,31.52-.79.48-1.24,2.67-.87,3.71,1.73,4.87,3.86,9.59,5.74,14.41C564.93,454.09,568,462.3,571.31,470.86Zm14.11,43.94c1.52-.67,2.59-1.06,3.6-1.59a405,405,0,0,0,52.9-33.12c2.65-2,2.93-3.8,1.87-6.53-3.9-10.13-7.7-20.29-11.61-30.42-.67-1.74-1.65-3.35-2.55-5.14-6.24,4.36-11.89,8.73-17.93,12.44-12,7.37-24.22,14.4-36.38,21.5-2,1.16-3.24,2-2.09,4.76,1.82,4.41,3.07,9.05,4.51,13.61C580.27,498.31,582.76,506.32,585.42,514.8ZM276.56,567.07c2,12.54,4,24.28,5.73,36.06.43,2.87,1.8,3.88,4.5,4.15,16.36,1.6,32.69,3.45,49,4.9,6.89.61,13.84.46,20.89.65a17.39,17.39,0,0,0,0-2.13c-1.87-11.65-3.83-23.3-5.62-35-.42-2.74-2.07-2.68-4.16-2.8-17.05-1-34.1-2-51.13-3.29C289.77,569.19,283.79,568.06,276.56,567.07ZM456.43,362.36c-1.22.15-2.12.18-3,.38-16.3,3.79-32.57,7.65-48.88,11.36-2.57.58-3,1.75-2.58,4.1,1.32,8.2,2.32,16.45,3.68,24.64,1,6.07,2.37,12.09,3.63,18.41a80.33,80.33,0,0,0,8-1.12c16.9-4,33.77-8.21,50.67-12.25,3.25-.78,2.84-2.71,2.09-5-2-6-3.93-12.07-6-18.08C461.62,377.36,459,369.92,456.43,362.36Zm62.82,228.12c-1.91.38-3.57.61-5.17,1-10.13,2.73-20.16,5.83-30.37,8.19-12.75,2.94-25.63,5.31-38.46,7.87-2,.41-3.81.59-3.18,3.54,2.11,9.89,4.08,19.81,6,29.73.42,2.12,1.48,2.71,3.57,2.32,24.11-4.41,48.06-9.45,71.45-16.87,1.12-.36,2.61-2.47,2.42-3.5C523.65,612.1,521.44,601.46,519.25,590.48Zm15.58-206.25c5.92,13.18,11.92,26.48,17.85,39.82.88,2,2.08,2,3.69,1.12a365.9,365.9,0,0,0,49-30.64c2.09-1.57,1.49-2.88.47-4.55-5.65-9.28-11.23-18.61-16.92-27.87-1.81-2.94-3.87-5.72-5.54-8.17Zm-192,42.64a421.16,421.16,0,0,0,60.76-4.54c2.7-.39,2.44-2,2.13-3.95-1.43-9.23-2.69-18.49-4.19-27.7-.82-5.07-2-10.09-2.9-14.75l-55.08,4.49C343.36,395.67,343.12,411.1,342.88,426.87ZM361.26,616c2,10,4.12,20.12,6,30.31.6,3.29,2.12,4,5.3,3.95a593.23,593.23,0,0,0,70.07-5.58c3.13-.41,3.91-1.57,3.23-4.57-2.24-9.75-4.28-19.53-6.41-29.3a4,4,0,0,0-.43-1.1Zm112.38-210c5.85-2,11.18-3.62,16.28-5.74,12.77-5.29,25.42-10.85,38.14-16.25,2.39-1,2.63-2.34,1.46-4.53-6.32-11.87-12.55-23.78-18.79-35.68-1-1.89-1.94-3-4.49-1.89-14.28,6-28.63,11.86-43,17.7-4.77,1.94-4.71,1.83-2.92,6.93,2.52,7.2,4.89,14.45,7.32,21.68Zm-201.9,112.6c.46-14.48.75-28,1.42-41.57.16-3.23-.79-4.19-3.79-4.76a287.59,287.59,0,0,1-50.43-14,35.93,35.93,0,0,0-3.68-.89c-1.49,14.17-3,27.89-4.22,41.63-.1,1.14,1.7,3.15,3,3.59,11.16,3.72,22.35,7.42,33.67,10.62C255.52,515.43,263.55,516.83,271.74,518.65ZM528.51,624.38a20.07,20.07,0,0,0,2.48-.51c9.26-3.32,18.63-6.35,27.71-10.09,12.55-5.16,24.86-10.91,37.3-16.33,2.38-1,3.24-2.5,2.84-5.1-.74-4.87-1.05-9.8-1.85-14.65-.94-5.7-2.22-11.33-3.35-17a7,7,0,0,0-1.58.24,516.87,516.87,0,0,1-67.54,27.44c-2.19.73-2.36,1.83-2,3.75,1.73,9.58,3.36,19.17,5,28.75C527.76,622,528.15,623.06,528.51,624.38ZM646.28,480.32a28.26,28.26,0,0,0-2.82,1.52A383.64,383.64,0,0,1,588.83,516c-2.25,1.16-2.5,2.45-2,4.64,2.73,11.09,5.34,22.2,8,33.3a10.79,10.79,0,0,0,.87,2,4.14,4.14,0,0,0,1-.13A362.44,362.44,0,0,0,654,519.9a4.73,4.73,0,0,0,1.37-4C652.51,504.25,649.44,492.61,646.28,480.32Zm-435.38,24a22.79,22.79,0,0,0-.49,3.25c0,11.38.27,22.77.05,34.14-.07,3.73,1.43,5.13,4.65,6.33a337.7,337.7,0,0,0,54.65,15.15c1.34.26,2.72.32,4.25.5a24.68,24.68,0,0,0,.24-3.07c-.67-11.76-1.62-23.51-1.94-35.28-.1-3.79-1.47-4.71-4.78-5.31A299.28,299.28,0,0,1,214,505.19C213.08,504.83,212.08,504.66,210.9,504.34ZM280.77,422a342.18,342.18,0,0,0,59.66,4.88c.26-15.89.51-31.34.75-46.44l-52.3-4.25C286.23,391.16,283.55,406.29,280.77,422Zm-54.59-11.51a28.26,28.26,0,0,0-.93,2.85c-2.78,12.37-5.45,24.77-8.33,37.11-.76,3.23-.12,5,3.26,5.91,16.6,4.49,33.16,9.14,49.75,13.68a18.1,18.1,0,0,0,3.33.29c1.61-15.59,3.18-30.82,4.7-45.45Zm328-96.92L511.6,340.22c7.22,13.65,14.44,27.3,21.74,41.13a308,308,0,0,0,48.47-30.43ZM283.09,609.41c2.9,10.81,5.71,20.77,8.2,30.81.75,3,2.13,4.17,5.16,4.65a462,462,0,0,0,63,5.39c2,0,4-.2,6-.31a8.24,8.24,0,0,0,.08-1.65c-2.44-10.22-4.94-20.42-7.32-30.66-.49-2.11-1.58-2.44-3.56-2.53-14.47-.67-28.95-1.29-43.4-2.36C302.22,612.09,293.28,610.65,283.09,609.41Zm368-254.63a13.28,13.28,0,0,0-1.7,1.35,248.6,248.6,0,0,1-36.83,35.69c-1.67,1.31-1.66,2.44-.69,4.28,4.42,8.35,8.69,16.78,12.93,25.22,2,4,3.83,8.05,5.75,12.12a9.34,9.34,0,0,0,1.52-.7,240.84,240.84,0,0,0,39.5-38.47,5,5,0,0,0,.38-4.38c-2.28-4.64-4.85-9.15-7.52-13.58C660.13,369.14,655.64,362.07,651.11,354.78Zm-65.54-2.53,24,38.89A219.19,219.19,0,0,0,648,353.87c.58-.74.17-3-.56-3.95-8-10.52-16.15-20.93-24.29-31.34a6.44,6.44,0,0,0-1.48-1.24ZM210.43,549c1.63,12.17,3.2,23.31,4.55,34.48.41,3.39,1.91,5.15,5.15,6.36a346.83,346.83,0,0,0,56.13,15.61c1.11.21,2.26.26,3.87.44-.23-1.58-.42-2.82-.59-4.05-1.46-10.28-3.13-20.53-4.27-30.84-.36-3.29-1.23-4.63-4.61-5.23a308.5,308.5,0,0,1-55.41-15.23C214.07,550.05,212.86,549.73,210.43,549ZM675.09,394.84a17.54,17.54,0,0,0-2.34,1.84A260.6,260.6,0,0,1,634,434.26c-2,1.54-1.86,3-1.05,5.05q4.86,12.06,9.55,24.18c1.52,3.93,2.91,7.9,4.51,12.26a27.71,27.71,0,0,0,3.21-2.21c11.74-11.16,23.34-22.46,35.22-33.46,5.05-4.68,6.11-9.21,2.92-15.57C683.52,415,679.56,405,675.09,394.84ZM278.33,422l8.17-46.25-44.83-12.49a1.66,1.66,0,0,0-.47.61c-4.55,13.64-9,27.29-13.64,40.92-.78,2.31.46,3,2.22,3.62,6.63,2.21,13.19,4.72,19.92,6.57C259,417.51,268.49,419.58,278.33,422ZM526.38,627.76c-5.26,1.63-9.73,3.32-14.35,4.38q-29.55,6.83-59.2,13.27c-2.57.56-3.63,1.24-2.95,4,1.91,7.82,3.67,15.66,5.37,23.52.47,2.16,1.51,2.66,3.57,2.29,4-.72,8-1,11.91-1.89,17.15-4.06,34.26-8.31,51.39-12.47,8-1.93,8.2-1.93,7.43-10C528.83,643.34,527.51,635.84,526.38,627.76ZM440.17,317a13.32,13.32,0,0,0-1.86.12c-13.74,3.22-27.47,6.49-41.22,9.64-2.39.55-2.3,2-2,3.78,1.89,13.07,3.72,26.15,5.78,39.2.15.94,2.11,2.48,2.91,2.3,16.29-3.65,32.54-7.51,48.79-11.34,2.25-.53,2.86-1.86,2.05-4-1.23-3.27-2.33-6.58-3.53-9.86Q445.64,331.95,440.17,317ZM602.59,593.79c-.19,0,.11.07.32,0a363.43,363.43,0,0,0,56.16-35.15,5.11,5.11,0,0,0,1.72-3.89c-1-9.65-2.23-19.28-3.45-28.91a34,34,0,0,0-1.13-4.23c-1.61,1.09-2.64,1.83-3.72,2.51-16.38,10.35-32.68,20.85-49.21,31-7,4.32-7.4,4-5.93,12.23C598.91,576.06,600.79,584.77,602.59,593.79Zm-258.81-217a6.9,6.9,0,0,0,1.88.57q25.32-2,50.63-4.07c2.46-.2,2.4-1.7,2.13-3.59-1.85-12.82-3.69-25.64-5.4-38.48-.37-2.8-1.39-3.61-4.29-3.28-10.67,1.23-21.36,2.16-32.05,3.16-3.19.3-7.63-.74-9.26,1-1.85,2-1.39,6.27-1.61,9.58C345.06,353.3,344.45,365,343.78,376.74ZM369.65,652.8a13.3,13.3,0,0,0,.24,2.55c2.48,8,5.05,16.06,7.5,24.11.92,3,3.27,2.85,5.59,2.74,12.15-.57,24.32-.91,36.45-1.87,10.33-.81,20.6-2.38,30.9-3.56,2.44-.27,3.38-1.2,2.75-3.82-1.86-7.69-3.58-15.42-5.22-23.16-.53-2.46-1.45-3.6-4.21-3.1-4.46.81-9,1.45-13.48,1.87C417,649.79,403.86,651,390.69,652,383.77,652.47,376.81,652.53,369.65,652.8Zm88.26-293.92A320,320,0,0,0,508,338.43c-7.92-12.92-15.49-25.4-23.3-37.73-.44-.7-3-.69-4.19-.2-7.9,3.21-15.68,6.72-23.57,10-4.73,1.95-9.57,3.61-14.54,5.47Zm162-44.69-32.12-32.88c-11,10.7-21.41,20.75-31.75,30.77l27.74,37.41C596.9,339.09,609,328,619.91,314.19ZM532.79,657.57c6.68-2.31,12.88-4.11,18.8-6.58,15.61-6.52,31.12-13.29,46.62-20.08,1.09-.48,2.51-1.92,2.5-2.9-.12-9.62-.51-19.24-.83-29a8.56,8.56,0,0,0-2,.16,523.38,523.38,0,0,1-67.15,27.18,3.47,3.47,0,0,0-1.57,2.89C530.24,638.4,531.48,647.49,532.79,657.57Zm-243.16-285a11.14,11.14,0,0,0,2.05.75q23.37,2,46.75,4c2.28.2,3.1-.75,3.17-3.14.2-7.11.66-14.21,1.08-21.31s.93-14.1,1.39-21.07l-43.29-3.51ZM208.24,501.06c.35-2.54.52-3.67.65-4.81,1.38-12.08,2.62-24.17,4.2-36.23.4-3-.45-4.35-3.17-5.5a186.71,186.71,0,0,1-38.87-22,13.22,13.22,0,0,0-2.07-1.06,9.64,9.64,0,0,0-.71,1.66c-2.36,12.59-4.78,25.18-6.93,37.8a5.2,5.2,0,0,0,1.95,4.07,168.64,168.64,0,0,0,16.12,10.89C188.62,491.1,198.12,495.78,208.24,501.06Zm5.22-47.32a13.43,13.43,0,0,0,.89-1.95c3-13.52,5.91-27.06,9-40.55.58-2.51-.69-3-2.41-4-11.64-6.49-23.22-13.1-34.82-19.67-.85-.49-1.71-1-3.47-1.92-4.36,14-8.62,27.39-12.63,40.9-.28.94.93,2.89,2,3.56,8.48,5.49,17,11,25.7,16.07C202.7,449.1,208.13,451.22,213.46,453.74Zm444.48,62.45a6.18,6.18,0,0,0,1.49-.47,254.19,254.19,0,0,0,41.94-40.93,5.79,5.79,0,0,0,.7-4.29c-1.37-6.33-2.86-12.65-4.6-18.89-1.44-5.14-3.28-10.17-4.94-15.26-.87.32-1.19.33-1.33.5a303.62,303.62,0,0,1-41.83,40.54c-.79.63-1.13,2.57-.85,3.69,1.43,5.64,3.19,11.2,4.71,16.83C654.85,503.89,656.33,509.91,657.94,516.19Zm-136.43-240-35.11,22c.31.6.62,1.31,1,2,6.95,11.52,14,23,20.79,34.6,1.46,2.51,2.86,2.51,4.91,1.23q17.6-11,35.18-22a43.17,43.17,0,0,0,3.75-3.07ZM289.62,643.89c-2.8-11-5.51-20.83-7.74-30.79-.73-3.28-2-4.71-5.32-5.31a313.64,313.64,0,0,1-56.1-15.48c-1-.38-2.12-.59-3.16-.88-.21.65-.4.91-.35,1.11,2.91,10.48,5.73,21,8.89,31.38.42,1.36,2.45,2.66,4,3.19,10.92,3.67,21.84,7.42,32.91,10.58C271.3,640.12,280.08,641.73,289.62,643.89Zm3.31,2.94c4,9.54,7.53,17.95,11,26.41,1,2.47,2.69,3.49,5.26,3.79,9,1,17.93,2.57,26.94,3.29,13,1,26,1.54,39.32,2.29a21.42,21.42,0,0,0-.39-3.37c-2.48-7.76-5.17-15.46-7.45-23.28-.77-2.64-2.07-3.31-4.58-3.46q-27.25-1.63-54.51-3.54C303.75,648.62,299.06,647.69,292.93,646.83Zm-85-102c.08-.89.16-1.38.16-1.87,0-12-.14-24,.15-36.06.07-3-.76-4.38-3.41-5.49a202.59,202.59,0,0,1-41.34-23.1c-.78-.57-1.69-1-3.57-2-.38,12.94-.66,25.06-1.15,37.17-.12,2.87,1.12,4.49,3.26,6.06a214.18,214.18,0,0,0,42.5,24.2C205.59,544.13,206.69,544.39,208,544.8ZM203.2,342c-6,13-12,26.07-18,39.1-1,2.2.28,3.16,1.76,4q17.34,10,34.75,19.85a11.78,11.78,0,0,0,2.78.76c4.93-14.94,9.74-29.54,14.4-43.67C227.09,355.49,215.6,349,203.2,342Zm95.2-14.21L261,317.33,241.87,360.8,287,373.33ZM650.87,350a18.8,18.8,0,0,0,1.5-1.53,159.21,159.21,0,0,0,20.8-36.37c.84-2.08.69-3.58-.86-5.23-8.61-9.16-17.13-18.39-25.71-27.57a7.5,7.5,0,0,0-1.59-1.16L623.61,315ZM523.38,274.67l30.69,34.86a197.63,197.63,0,0,0,29.42-28.11c1.76-2.1.68-3.11-.85-4.38q-15.6-12.89-31.16-25.79a18.75,18.75,0,0,0-2.43-1.53Zm153.26,37.51-1.28-.26a10.56,10.56,0,0,1-.38,2,152.24,152.24,0,0,1-21.21,36.53c-1.6,2.05-.74,3.41.35,5.17,6.31,10.23,12.52,20.51,18.77,30.78.64,1,1.27,2.09,2,3.22a7.48,7.48,0,0,0,1.22-.95,156.52,156.52,0,0,0,23-40.4,6,6,0,0,0-.68-4.6q-6.15-9.87-12.76-19.46C682.78,320.07,679.64,316.17,676.64,312.18ZM661.71,560.69a12.71,12.71,0,0,0-2.1.72,423.15,423.15,0,0,1-55.94,34.85,4.33,4.33,0,0,0-1.67,3.37c.14,5.55.61,11.1.93,16.65.21,3.8.37,7.6.56,11.52a8.41,8.41,0,0,0,1.67-.34,361.82,361.82,0,0,0,53.18-33.4,5.92,5.92,0,0,0,2.28-3.74C661.13,580.68,661.37,571,661.71,560.69Zm-53.47-314-19,32.64L622.06,313c5.72-9.92,11.47-19.15,16.47-28.77,4.5-8.63,4.27-9-3.11-15.21C626.44,261.39,617.23,254.06,608.24,246.71ZM456.76,679c1.66,6.46,3.48,13,5,19.71.61,2.68,1.85,3.32,4.37,2.72q31.58-7.54,63.19-15c2.35-.56,3.14-2,2.83-4.29-.15-1.15-.07-2.33-.16-3.49-.43-5.75-.88-11.5-1.3-17ZM213,586.47c0-1.31,0-2-.1-2.58-1.38-11-2.66-22.12-4.27-33.15a6.29,6.29,0,0,0-3.22-4.07c-15.26-6.71-29.91-14.46-43.41-24.3a31.49,31.49,0,0,0-3.51-1.75c1.42,11.77,2.78,22.55,4,33.35a9.53,9.53,0,0,0,4.26,7,218.67,218.67,0,0,0,42.88,24.45A35.36,35.36,0,0,0,213,586.47ZM663.5,554.66A8.63,8.63,0,0,0,665,554a246.84,246.84,0,0,0,40.82-39.88,8.46,8.46,0,0,0,1.41-5.38c-.45-7.1-1.13-14.2-2-21.27-.39-3.38-1.28-6.7-2-10.29-.77.46-1.17.57-1.39.84a302.75,302.75,0,0,1-41.61,40.25c-1,.79-1.43,3-1.26,4.37.78,6.3,1.92,12.55,2.84,18.84C662.48,545.79,662.94,550.11,663.5,554.66ZM439.43,314.8c-5.43-13.8-10.35-26.44-15.47-39-.3-.73-2.35-1.29-3.4-1.06-9.63,2.07-19.21,4.41-28.83,6.49-2.53.55-3,1.68-2.67,4.06.9,6,1.5,12.09,2.33,18.12.95,7,2,14,3.16,21.84Zm-53.1-32.19c-8.48.76-16.57,1.5-24.67,2.21-3.31.29-7.88-.67-9.61,1.12-2,2.05-1.59,6.52-2,10-1.18,10.76-2.23,21.53-3.45,33.45l45.42-3.62ZM258.78,316.32l-29.17-16.44c-6.48,10.31-13.15,20.64-19.51,31.14-5.17,8.52-5.18,8.89,3.43,14.13,8.46,5.14,17.31,9.64,26.17,14.53C246.38,344.52,252.61,330.35,258.78,316.32ZM460.24,702.69c-1.75-6.92-3.3-12.64-4.64-18.42s-1.24-5.64-7.41-5.06c-19.06,1.81-38.14,3.43-57.21,5.07-3.64.31-7.31.35-11.77.56,3.16,7,6.08,13.2,8.73,19.49,1.22,2.91,3.22,3.64,6.07,3.5,7.62-.36,15.27-.35,22.87-1C431.05,705.68,445.2,704.15,460.24,702.69ZM701.94,349c-.93,1.55-1.25,2-1.44,2.42-5.73,14-13.58,26.83-22.57,39-.85,1.15-.77,3.67-.15,5.13,3.13,7.24,6.65,14.3,9.89,21.5,1.87,4.17,3.46,8.46,5.39,13.24a36.6,36.6,0,0,0,3-3.55c5.64-9.15,12-18,16.67-27.61,8.39-17.36,7.61-11.25.45-27.93C710,363.85,706,356.92,701.94,349ZM425.76,273.39c4.86,12.44,9.7,24.55,14.27,36.76,1,2.57,2.07,3.3,4.52,2.36,7.11-2.74,14.29-5.32,21.35-8.19,5.46-2.22,10.78-4.79,16.4-7.31-1.05-1.84-1.68-3.11-2.48-4.27-6.14-9-12.27-17.95-18.51-26.85-4-5.66-4-5.51-10.47-2.78C442.65,266.58,434.38,269.87,425.76,273.39Zm-77,12.33c-10.58-1.06-20.73-2.15-30.89-3-.82-.06-2.24,1.56-2.62,2.66-4.23,12.25-8.32,24.55-12.42,36.86a32.42,32.42,0,0,0-.64,4c13.56.89,26.69,1.8,39.83,2.53a3.33,3.33,0,0,0,2.46-2.11C346,313,347.34,299.38,348.74,285.72ZM601.25,632.56c-2.13.86-3,1.19-3.94,1.6-6.35,2.91-12.58,6.13-19.07,8.7q-20.38,8.05-41,15.45c-3.59,1.28-4.42,3.13-4,6.5.48,4.37.66,8.78,1,13.17.14,2,.32,4,.48,6a6.35,6.35,0,0,0,1.54.07,435,435,0,0,0,60-24.5c.87-.44,2.07-1.26,2.17-2C599.37,649.53,600.23,641.5,601.25,632.56ZM459.61,259.09l25.5,37,33.73-21c-.43-1.23-.44-1.54-.61-1.7-10.26-9.9-20.51-19.81-30.89-29.58-.62-.58-2.65-.35-3.57.23-4.3,2.65-8.37,5.65-12.64,8.34C467.45,254.67,463.61,256.76,459.61,259.09Zm-304.5,96.16a26.15,26.15,0,0,0-1.71,2.87c-4.49,10.61-8.88,21.26-13.44,31.84a7.26,7.26,0,0,0,.83,7.58,129.23,129.23,0,0,0,24,26.86,18,18,0,0,0,2.3,1.48c4.69-13.6,9.33-26.89,13.77-40.26.29-.87-.7-2.61-1.59-3.36A119.41,119.41,0,0,1,157,357.51C156.48,356.79,155.86,356.16,155.11,355.25ZM301.63,675.62a7.76,7.76,0,0,0-.12-1.9c-3.25-8.29-6.42-16.62-9.94-24.8a6.45,6.45,0,0,0-4.18-3.15A344.66,344.66,0,0,1,231,630.12a16,16,0,0,0-2.54-.52c0,.7-.12,1.14,0,1.45,4.13,8.76,8.24,17.52,12.5,26.21a5.21,5.21,0,0,0,2.67,2.08A302.13,302.13,0,0,0,301.63,675.62ZM551,247.37l35.9,29.72a126.16,126.16,0,0,0,17.41-29.66c1-2.33-.22-3.32-1.84-4.32q-17.36-10.77-34.71-21.5a5.87,5.87,0,0,0-1.6-.54C561,230,556,238.62,551,247.37ZM178.49,315.49c-.43.59-1.31,1.67-2,2.84-5.24,8.5-10.6,16.93-15.63,25.56s-4.88,8.65,1.07,16.58a104.17,104.17,0,0,0,20.18,20.75c.42-.37.69-.5.79-.7,6.13-12.88,12.28-25.74,18.28-38.68a3.65,3.65,0,0,0-.68-3.21C193.34,331,186.1,323.46,178.49,315.49Zm134.94-33c-8.9-2.67-17.4-5.33-26-7.66-1-.26-3,1.05-3.65,2.15-6.61,11.44-13,23-19.48,34.51-.53,1-.85,2-1.64,4l36.38,10ZM138,397.48a13.43,13.43,0,0,0-1.22,2.3c-2.83,11.43-5.71,22.84-8.31,34.32a6.82,6.82,0,0,0,1.37,5c6.66,8.4,13.43,16.71,20.4,24.86,2.21,2.6,5.11,4.61,7.93,7.1a8.29,8.29,0,0,0,.74-1.5c2.47-12.83,5-25.66,7.33-38.5a3.78,3.78,0,0,0-1-3A132,132,0,0,1,138,397.48ZM386.69,707.73c-3.25-7.59-6.13-14.61-9.34-21.47-.45-1-2.5-1.63-3.82-1.65a427.5,427.5,0,0,1-62.2-4.91c-1.19-.18-2.41-.17-5-.34,5.12,7.93,9.54,14.87,14.11,21.71a4.77,4.77,0,0,0,3,1.54A381.84,381.84,0,0,0,386.69,707.73ZM488.37,241l33.42,31.9,25.57-24.68-39.08-26.71ZM704.81,470.12a27.45,27.45,0,0,0,2.63-3c6.16-10.21,12.36-20.4,18.37-30.69,4.23-7.23,6.24-14.78,2.4-22.94-.6-1.26-.55-2.8-1-4.16-2.06-6.6-4.17-13.17-6.61-20.87-1.12,2.17-1.7,3.13-2.13,4.15a160.77,160.77,0,0,1-21,35.87c-2.69,3.48-3.66,6.37-1.59,10.49,1.49,3,2.1,6.38,3,9.62C700.86,455.52,702.73,462.5,704.81,470.12ZM222.64,624.4c-2.85-11.35-5.37-21.78-8.19-32.14a6.62,6.62,0,0,0-3.42-3.68A233.13,233.13,0,0,1,166.91,564a22.21,22.21,0,0,0-3.06-1.28c3,10,5.86,19,8.41,28a16.2,16.2,0,0,0,7.71,9.76c9,5.46,17.81,11.13,26.91,16.37C211.77,619.69,217.07,621.77,222.64,624.4ZM203.11,337.5l24.64-39.17-19.22-21.52c-8.91,11.29-17.84,22.55-26.65,33.9a3.41,3.41,0,0,0,0,3.08A91.28,91.28,0,0,0,203.11,337.5Zm79.64-64.16c-6.18-3.58-12.44-6.95-18.42-10.77-2.41-1.54-3.69-1.4-5.42.75-6.72,8.41-13.71,16.6-20.34,25.06-7.38,9.42-7.35,9.66,3.06,15.85,6,3.54,12.22,6.52,18.29,9.72Zm360.5-1.08a88,88,0,0,0,5.13-34.88,3.81,3.81,0,0,0-1.64-2.46c-10.84-7.32-21.72-14.55-32.61-21.79-.15-.09-.47.08-.92.17-.11.82-.25,1.69-.35,2.57-.82,6.65-.65,13.63-2.7,19.87-2.24,6.78-.52,10.13,5,14.06C624.79,256.58,633.61,264.45,643.25,272.26Zm20.29,317.62a37.28,37.28,0,0,0,3.6-2.63c10.74-10.29,21.41-20.66,32.2-30.91a22.11,22.11,0,0,0,7-15.8c.34-7.67.94-15.32,1.42-23l-1.06-.29c-.79.79-1.57,1.59-2.38,2.37-11.6,11.27-23,22.77-34.93,33.65-3.92,3.58-6.27,6.62-5.84,12.26C664.18,573.36,663.61,581.24,663.54,589.88ZM652.27,238.41c-.44.27-.87.55-1.3.83a113.83,113.83,0,0,1-5.25,34c-.28.9.82,2.53,1.68,3.46,8.38,9,16.84,18,25.29,26.95.69.73,1.44,1.4,2.45,2.37.26-.66.42-1,.55-1.38a97.09,97.09,0,0,0,5.23-35.93,6.33,6.33,0,0,0-1.33-3.92C670.56,255.94,661.39,247.19,652.27,238.41ZM601.51,656.53a26.37,26.37,0,0,0,3.32-1.4c11-6.54,22.22-12.76,32.92-19.77,18.73-12.28,18.72-12.68,21.75-34.88a7.67,7.67,0,0,0,.08-1.17c0-.79-.07-1.58-.07-1.46q-27.19,16.2-54.51,32.54a3.7,3.7,0,0,0-1.77,2.29C602.57,640.48,602.08,648.3,601.51,656.53ZM127.78,441.45l-1.11-.06c-.66,10.68-1.21,21.36-2,32a13.57,13.57,0,0,0,3.09,10.08c6.76,8.17,13.57,16.3,20.54,24.29,2.08,2.39,4.75,4.27,7.5,6.69a16.06,16.06,0,0,0,.69-2.7c.57-11.62,1.19-23.23,1.54-34.85a7.08,7.08,0,0,0-2.14-4.51c-4.81-4.89-10.11-9.32-14.72-14.39C136.39,452.78,132.22,447,127.78,441.45Zm382-222c12.3,8.4,24.46,16.76,36.73,25a3.47,3.47,0,0,0,3.32-.74c4.28-7.09,8.32-14.31,12.44-21.49,1.28-2.23.46-3.44-1.72-4.46-8.22-3.86-16.33-7.92-24.56-11.74-4.9-2.27-10-4.21-14.82-6.26Zm61.53-27c-1.3,7.5-2.31,14.76-3.92,21.89-.67,2.94-.17,4.27,2.4,5.82,11.23,6.76,22.3,13.78,33.43,20.69.82.51,1.73.88,2.83,1.43,3.26-9.54,5-18.91,4.3-28.58a6.23,6.23,0,0,0-2.89-4.36c-11-5.49-22.18-10.72-33.32-16A19.24,19.24,0,0,0,571.31,192.43ZM700.93,342.06a8.84,8.84,0,0,0,.89-1.56c3.78-11.68,5.89-23.65,5.23-35.92a18.64,18.64,0,0,0-3.2-9.19c-5.4-7.75-11.3-15.15-17.05-22.66a23.75,23.75,0,0,0-2.34-2.4c-1.71,10.24-2.74,20.58-5.35,30.52-1.54,5.9-1,9.88,2.83,14.66C688.65,323.84,694.46,332.91,700.93,342.06ZM532.41,688c-1.9.38-2.78.5-3.64.73-9.62,2.63-19.18,5.56-28.89,7.83-11,2.57-22.12,4.55-33.18,6.8-1.6.33-3.73.35-3,3,1.38,4.8,2.9,9.57,4.3,14.17,14.77-2.94,29-5.67,43.21-8.67a146.89,146.89,0,0,0,15.34-4.33c1.8-.59,4.53-1.87,4.74-3.16C532.11,699.17,532.09,693.87,532.41,688ZM245.06,243.72c-.15,0-.47,0-.63.14-10.62,9.84-21.25,19.67-31.76,29.63a3.46,3.46,0,0,0-.18,3.26,73.73,73.73,0,0,0,17.14,18.89l29.21-36.4C254.14,254,249.63,248.87,245.06,243.72ZM388.59,280l32.84-7.83c.14-1.1.27-1.39.19-1.59-4.75-11.32-9.48-22.65-14.37-33.92a3.17,3.17,0,0,0-2.75-1.21c-6,1.24-11.86,2.79-17.82,4-2.48.52-3.08,1.69-2.74,4.09.78,5.64,1.28,11.32,2,17C386.71,266.67,387.6,272.8,388.59,280Zm-2.62.33c-1.54-13.26-3-25.33-4.34-37.42-.26-2.31-1.69-2.06-3.37-1.89-5.15.52-10.32,1.35-15.46,1.21-3.95-.1-5.12,1.36-5.62,4.92-1.45,10.37-3.2,20.7-4.81,31.05-.21,1.35-.27,2.71-.48,5ZM455.25,259a9.9,9.9,0,0,0-.48-1.87c-7.84-10-15.63-20-23.62-29.8-.63-.77-2.83-.92-4-.5-4,1.44-7.85,3.28-11.78,4.93-2.07.87-4.17,1.65-6.36,2.52,5,11.73,9.73,22.9,14.66,34a3.86,3.86,0,0,0,3.43,1.56C436.52,266.34,445.85,262.63,455.25,259Zm10.31,462.47c-1.36-5-2.69-9.15-3.66-13.44-.62-2.75-1.82-3.28-4.62-3-16.74,1.72-33.51,3.23-50.29,4.68-5,.43-10,.42-16.18.66,3.82,5.53,7,10.35,10.46,14.93.64.85,2.56,1.09,3.85,1,14.73-.79,29.46-1.59,44.18-2.63C454.55,723.3,459.76,722.26,465.56,721.44ZM317,280.63c10.6.71,20.44,1.44,30.29,1.87.79,0,2.21-1.85,2.41-3,1.34-7.63,2.4-15.31,3.6-23,.71-4.54,1.5-9.07,2.28-13.79-6.31-.55-12.23-.88-18.08-1.69-2.72-.38-4,.39-5,2.8-3.54,8.34-7.29,16.59-10.86,24.92C320.08,272.3,318.8,275.93,317,280.63ZM245.15,662.69l-.86,1.07c5,6.41,9.83,12.92,15,19.16a13.12,13.12,0,0,0,5.92,4.09c16.11,4.77,32.3,9.27,48.47,13.83a19.91,19.91,0,0,0,3.28.29c-3.88-6.53-7.66-12.5-11-18.71a8.77,8.77,0,0,0-6.31-4.81c-17.14-4.44-34.18-9.24-51.26-13.93C247.3,663.39,246.23,663,245.15,662.69ZM167.37,283.58c-5.47,7.4-10.31,14.95-16.16,21.6-6.9,7.83-7.09,16.13-4,25.26.74,2.21,1.27,4.49,2.15,6.64,1.6,3.93,3.39,7.77,5.44,12.43l2.42-4C163,336,168.5,326.29,174.68,317c2.46-3.69,2.6-6.32.81-10.37C172.34,299.52,170.23,291.92,167.37,283.58ZM732.6,430.9l-1.57,0c-.38.8-.81,1.58-1.15,2.39a160.4,160.4,0,0,1-20.64,35.12,13.68,13.68,0,0,0-3,11.67c1.54,9.26,2.54,18.61,3.82,28.33a16.22,16.22,0,0,0,1.46-1.5A164.29,164.29,0,0,0,734,466.6a7.78,7.78,0,0,0,.79-3C734.14,452.71,733.36,441.81,732.6,430.9ZM483.7,241.63l0-1.72c-10.91-8.49-21.81-17-32.78-25.4a3,3,0,0,0-2.75-.1c-5.25,3.24-10.4,6.65-15.58,10,.06.31,0,.62.17.8,7.92,10.05,15.83,20.11,23.85,30.07a3.11,3.11,0,0,0,2.89.79C467.65,251.37,475.67,246.48,483.7,241.63ZM179.32,309.35c1.11-1.23,2-2.16,2.85-3.17,6.53-8.06,12.65-16.49,19.69-24.05,4.62-5,6.76-9,3-15.57-2.54-4.43-3.18-9.93-4.7-15-.46.16-.9.18-1.14.41q-13.66,13.53-27.25,27.12a3.88,3.88,0,0,0-1,2.78C171.9,291.28,174.24,300.36,179.32,309.35Zm385.83-92.47c1-7.81,1.93-15,2.92-22.27.38-2.81-.75-4.27-3.44-5.09-12.24-3.76-24.44-7.66-36.67-11.47a18.11,18.11,0,0,0-3-.46c-1,6.75-2,13.1-3,19.43Zm-31.1,487.78a8,8,0,0,0,1.64-.16q26.74-10.85,53.45-21.77c1-.42,2.31-1.18,2.64-2.09,2.14-5.87,4.05-11.83,6.23-18.35a12.38,12.38,0,0,0-2.6.36,445.15,445.15,0,0,1-58.53,23.65,4.16,4.16,0,0,0-2.21,3C534.28,694.29,534.24,699.32,534.05,704.66ZM331.41,240.5c-5.3-1.57-10.31-2.82-15.14-4.57-2.59-.94-4-.39-5.46,1.75-7.26,10.42-14.64,20.76-21.95,31.15a37.35,37.35,0,0,0-1.95,3.71c8.48,2.25,16.48,4.27,24.42,6.51,2.79.8,3.84-.25,4.83-2.71,3.73-9.25,7.68-18.41,11.57-27.6C328.88,246,330.12,243.37,331.41,240.5Zm-172.19,315c.67-1.2.91-1.42.89-1.62-1.12-11.19-2.19-22.39-3.5-33.56a7.11,7.11,0,0,0-2.51-4,147.13,147.13,0,0,1-26.75-29.08,19,19,0,0,0-1.87-2.05l-1,.39c1,8.84,1.8,17.73,3.24,26.5A34.47,34.47,0,0,0,132,524.34c6.73,11,15.49,20.38,25.21,28.84A22.71,22.71,0,0,1,159.22,555.52ZM142,320.74a5.86,5.86,0,0,0-1,1.2c-4.8,9.92-9.64,19.83-14.28,29.82a9.15,9.15,0,0,0-.49,4.94c1.47,10.17,3.83,20.12,8.34,29.44.63,1.31,1.49,2.51,2.57,4.29.77-1.87,1.24-3,1.74-4.21,3.89-9.2,7.42-18.57,11.82-27.52,2.29-4.65,2.2-8.14.09-12.88C147.18,337.85,144.9,329.32,142,320.74Zm363.5-99.4-.32-1.68c-13.17-6.61-26.34-13.24-39.55-19.77a2.65,2.65,0,0,0-2.35.55c-3.79,3.7-7.47,7.52-11.19,11.3.1.23.13.53.31.67q16,12.74,32,25.41c.63.5,2.19.82,2.62.44C493.22,232.7,499.34,227,505.48,221.34Zm-328,381.32-.83.17c4.15,7.68,8.12,15.48,12.54,23a26.19,26.19,0,0,0,6.62,7.41,192.07,192.07,0,0,0,38.27,22.17,33.66,33.66,0,0,0,3.43,1c-2.48-5.07-4.69-9.41-6.73-13.84-2.26-4.91-3.28-11-6.83-14.56s-9.9-4.8-14.77-7.46C198.55,614.74,188.05,608.64,177.49,602.66Zm533.15-297-.8.35a14.43,14.43,0,0,0-.2,1.45,131.62,131.62,0,0,1-6.17,36.23,7,7,0,0,0,.73,4.67c3.37,6.83,7,13.53,10.44,20.35,1.85,3.7,3.42,7.53,5.2,11.51.59-.63.86-.78.93-1,5.79-19.81,10-39.53-2-58.78C715.78,315.66,713.33,310.58,710.64,305.64ZM311.12,234.49c-4.53-2.58-8.25-4.39-11.61-6.73-2.43-1.69-4-1.42-6,.56-9.25,9.26-18.6,18.42-27.89,27.63-.8.8-1.43,1.76-2.77,3.43,6.35,3.54,12.33,6.79,18.23,10.17,2.55,1.46,3.94.89,5.62-1.58,7.08-10.39,14.42-20.61,21.71-30.86A21.14,21.14,0,0,1,311.12,234.49Zm-74-12c-11.13,8.4-22,16.61-32.87,24.95a4.33,4.33,0,0,0-1.29,3.39,57.26,57.26,0,0,0,6.81,21.34,6.89,6.89,0,0,0,1.59-.78q15.6-14.56,31.12-29.22a3.09,3.09,0,0,0,.86-2.56C241.49,234.26,239.48,229,237.1,222.49ZM398.46,726.54c-3.33-5.31-5.85-9.68-8.78-13.75a7.06,7.06,0,0,0-4.55-2.61c-19.06-1.6-38.13-3-57.21-4.43-1.06-.09-2.12-.09-3.19-.13l-.46.89c3.71,3.76,7.17,7.83,11.24,11.15a19.92,19.92,0,0,0,9.14,4.37c10.75,1.56,21.57,2.62,32.4,3.56C383.82,726.18,390.65,726.21,398.46,726.54ZM609.85,207.4a65.36,65.36,0,0,0-7.46-25.24,10.92,10.92,0,0,0-5.14-4.78c-9.64-3.81-19.43-7.22-29.18-10.74-1.17-.42-2.41-.64-4.12-1.08.37,1.46.57,2.3.8,3.14,1.63,5.7,3.5,11.36,4.8,17.14a6,6,0,0,0,3.88,4.68c10.86,4.93,21.63,10,32.44,15.09C607,206.14,608.15,206.63,609.85,207.4Zm-90.69-9.16c-15.47-4.78-29.76-9.23-44.08-13.55a2.88,2.88,0,0,0-2.44,1.12c-2.21,3.74-4.22,7.59-6.26,11.35l41.2,21.27Zm87-17.14-.8.81a18.52,18.52,0,0,0,.37,1.83c2.22,7.55,4.36,15.12,6.78,22.61a9.48,9.48,0,0,0,3.25,4.69c9.51,6.53,19.17,12.83,28.79,19.19.87.57,1.83,1,2.74,1.54l1.09-.71c-1.75-6.31-3.47-12.63-5.27-18.92-2.59-9.09-8.18-15.52-16.69-19.75C619.54,189,612.93,184.89,606.19,181.1Zm52,439a22.21,22.21,0,0,0,2.22-1.35,227,227,0,0,0,33.64-33.33,15.16,15.16,0,0,0,2.64-4.7c2.23-7,4.29-14.12,6.35-21.2a22.24,22.24,0,0,0,.36-3.59,13.31,13.31,0,0,0-1.62,1.12,284.31,284.31,0,0,1-37.46,35.55,5.15,5.15,0,0,0-1.77,2.85C661.06,603.43,659.71,611.46,658.2,620.09ZM260.39,257.43c11.67-11.53,22.61-22.33,33.55-33.15-2.5-3-4.89-6-7.55-8.83-.53-.56-2.45-.56-3.19,0q-17.11,12.1-34,24.52c-.74.55-1.25,2.82-.77,3.41C252.24,248.14,256.33,252.73,260.39,257.43ZM566.94,187.6l1.41-.89c-2.19-6.29-4.43-12.56-6.55-18.87-.94-2.81-2.87-4-5.67-4.54-10.81-2-21.6-4.09-32.4-6.1a34,34,0,0,0-4.11-.28c1.44,5.11,3,9.75,4,14.51.53,2.54,1.62,3.6,4.06,4.32,12,3.53,24,7.29,36,11C564.76,187,565.85,187.31,566.94,187.6Zm-441,244.05a11.93,11.93,0,0,0,.84-1.77c2.86-11.16,5.77-22.29,8.45-33.49a9.29,9.29,0,0,0-.71-5.12c-2.26-5.9-4.91-11.65-7.06-17.59-1.5-4.13-2.42-8.46-3.63-12.85C112.42,384.93,111.84,408.39,125.93,431.65ZM652.08,629.83l-.9-.6c-.44.22-.91.42-1.33.67q-23.6,14.52-47.17,29.07c-.85.52-2,1.18-2.21,2-1.71,5.85-3.22,11.76-5,18.29a36.22,36.22,0,0,0,3.73-1.73c12.71-7.94,25.49-15.78,38.07-23.92C645.94,648,648.07,638.31,652.08,629.83ZM474.47,181.75c7.7,2.32,15.16,4.44,22.53,6.82s14.59,5,22.75,7.78c.8-5.64,1.5-10.71,2.26-15.77.46-3-.73-4.4-3.82-4.89-12.89-2-25.75-4.29-38.63-6.42a22.38,22.38,0,0,0-3.27-.1C475.66,173.5,475.09,177.44,474.47,181.75Zm-272.07,42-1-.91Q188.72,234.14,176,245.45a2.64,2.64,0,0,0-.65,1,75.94,75.94,0,0,0-5,30.12l3.24-3.24c7.08-7,13.93-14.28,21.34-20.92,3.65-3.28,5.47-6.42,5.43-11.48C200.36,235.18,201.68,229.47,202.4,223.75Zm477.37,36.82c-.4-21.65-19.15-50.08-36-55.89,2.17,9.24,4.44,19,6.77,28.72a4.67,4.67,0,0,0,1.28,2.28C661,244,670.31,252.17,679.77,260.57Zm-434-21.93c12.44-8.72,24.71-17.31,36.92-26a2.58,2.58,0,0,0,.72-2.25c-1-3.32-2.21-6.57-3.33-9.81-.32,0-.63-.21-.81-.11q-18.64,9.84-37.26,19.76a2.71,2.71,0,0,0-1.25,2.11C241.53,228.12,242.53,233.83,245.78,238.64Zm-6.37-37.29a26.49,26.49,0,0,0-2.51,1c-7.25,4-14.32,8.35-21.76,11.93-7.18,3.45-10.68,8.92-11.42,16.57-.44,4.51-1,9-1.54,14a13.47,13.47,0,0,0,2.07-.78q15.9-11.48,31.74-23a4.6,4.6,0,0,0,1.82-2.72C238.46,212.89,238.87,207.37,239.41,201.35ZM708.54,543.83C723,531,738.65,488,733.92,474c-.76,1.46-1.36,2.72-2,3.91-4.94,8.51-9.26,17.48-15,25.36-4.88,6.67-7.88,13.13-7.33,21.54C709.9,531,708.92,537.28,708.54,543.83ZM131.38,528.68c4.54,26.7,17.86,46.94,38.62,63.69a27.78,27.78,0,0,0-.43-2.81c-2.51-9-5-17.94-7.63-26.86A10.42,10.42,0,0,0,159,558a154.76,154.76,0,0,1-25.32-26.72C133.18,530.57,132.55,530,131.38,528.68ZM472.53,153.93c1.11,3.83,2.16,6.35,2.53,9,.4,2.87,1.79,3.69,4.51,4.11,12.9,2,25.76,4.24,38.63,6.39.95.15,1.91.19,4.09.41-2-5.82-3.68-10.92-5.64-15.9a4,4,0,0,0-3-1.79C500.24,155.31,486.84,154.66,472.53,153.93Zm259.58,264.3c9-14.83,7.06-56.87-2.54-71-1.73,9.41-2.82,19.63-5.68,29.33a24.73,24.73,0,0,0,1,17.89,42.09,42.09,0,0,1,1.48,4.4C728.27,405.22,730.15,411.6,732.11,418.23ZM469.36,724c.31,1.15.68,2.36,1,3.6.94,4.15,3.13,5.49,7.5,4.4,14.8-3.71,29.72-6.93,44.51-10.68,6.45-1.64,8.67-5.6,7.85-11.76ZM504.9,138c4.59,5.79,8.2,10.48,12,15a5.53,5.53,0,0,0,3.09,1.28c11.57,2.11,23.14,4.16,34.72,6.22.71.12,1.44.13,2.28.21-3.55-9.33-15.73-19.41-25-20.43C523.32,139.34,514.61,138.8,504.9,138Zm-99.67,94.92a27,27,0,0,0-1-3.1c-3.47-7.5-6.94-15-10.5-22.45s-3.68-7.61-11.53-4.78c-1,.37-2.36,1.95-2.28,2.84.93,10,2.06,20.07,3.32,30.07a3.21,3.21,0,0,0,2.53,1.86C392.21,236,398.58,234.47,405.23,232.91Zm-234.51,18.5c-17.29,14.41-29.66,42.92-25.56,58.54.82-1.07,1.54-1.93,2.2-2.85,3.92-5.49,7.36-11.4,11.84-16.38,6.24-6.91,10-14.16,9.29-23.86C168.13,262,169.84,257,170.72,251.41ZM381,238.35c-1.06-9.62-2.05-18.6-3.05-27.57-.76-6.86-.77-6.75-7.58-6.78-2.81,0-4.19.86-4.78,3.75-1.94,9.52-4.16,19-6.23,28.48-.24,1.08-.24,2.21-.43,4.06Zm11.83-38.54c4.87,10.39,9.47,20.31,14.2,30.16a2.84,2.84,0,0,0,2.39,1.23c6.12-2.22,12.16-4.63,18.1-6.95-.22-1.09-.19-1.41-.33-1.57-7.77-8.47-15.53-17-23.41-25.33a3.49,3.49,0,0,0-3-.64C398.22,197.49,395.77,198.63,392.82,199.81ZM281.15,185.42a4.63,4.63,0,0,0-1.44,0q-16.87,6.34-33.73,12.75c-.94.36-2.22.85-2.54,1.61-2.38,5.72-3.67,11.63-2.93,17.76,12.8-6.53,25.23-12.85,37.62-19.28a4.1,4.1,0,0,0,2-2.51C280.64,192.43,280.82,189.07,281.15,185.42Zm52.39,534.27c-4.07-4.47-7.6-8.61-11.45-12.43a13.76,13.76,0,0,0-5.72-3.37c-15.1-4.18-30.26-8.15-45.4-12.19-1-.26-2-.48-3.55-.84a14.44,14.44,0,0,0,1,1.58C286,710.91,309.51,715.16,333.54,719.69ZM363.8,204.54a24.28,24.28,0,0,1-3.53-.48c-4.64-1.36-7.32.45-9.44,4.69-4.36,8.7-9.18,17.16-13.77,25.74-.59,1.09-1,2.29-1.74,4.19,6.65.46,12.67.95,18.7,1.2a3.08,3.08,0,0,0,2.39-1.76C359,227,361.33,215.92,363.8,204.54ZM404.31,729c4.85,4.92,8.55,9.21,15.36,8.66,11.73-.95,23.51-1.44,35.24-2.35,5-.39,9.87-1.35,15.08-2.09-.87-2.46-1.58-4.26-2.14-6.1-.86-2.86-2.5-3.44-5.51-3.12-15,1.64-30.13,3-45.21,4.35C413.21,728.69,409.28,728.75,404.31,729Zm42.44-516.28c-.3-.89-.31-1.25-.48-1.36-10.77-6.95-21.55-13.91-32.38-20.78a2.88,2.88,0,0,0-2.48-.09c-2.2,1.26-4.26,2.77-6.46,4.24,8.2,9,16.12,17.68,24.13,26.31a2.9,2.9,0,0,0,2.61.7C436.81,218.8,441.83,215.69,446.75,212.71Zm-132.57,20.4c5.75,1.57,10.56,2.83,15.34,4.22,2.38.69,3.63,0,4.81-2.3,4.61-9,9.47-17.83,14.25-26.72.89-1.66,1.85-3.27,2.79-4.93-7.64-3.34-7.66-3.36-12.93,2.19-2.58,2.72-5.18,5.44-7.64,8.26C325.45,220,320.18,226.13,314.18,233.11ZM254.49,681.78c-4.57-6.72-9.09-13.49-13.78-20.14-.75-1.06-2.21-1.7-3.43-2.36q-18.3-9.87-36.64-19.66c-.79-.42-1.62-.78-3-1.45C211.45,660.31,232,672.39,254.49,681.78ZM597.22,174.4c-6.26-15.66-35.78-33.52-50.43-31,4.25,5.31,8.51,10.81,13,16.14a12,12,0,0,0,4.74,3.5c9.85,3.62,19.78,7,29.69,10.45C595.14,173.8,596.08,174.05,597.22,174.4ZM121.93,472.82c.23-1.29.36-1.77.41-2.26,1-10.56,2-21.11,2.85-31.68a11.3,11.3,0,0,0-1.2-4.79c-2.23-5.5-4.77-10.89-6.84-16.45-1.54-4.14-2.51-8.48-3.73-12.74C109.05,428.24,110,450.83,121.93,472.82ZM415.22,188c10.94,7.19,21.64,14.24,32.39,21.22.65.42,2,.74,2.43.38,4-3.48,7.91-7.12,11.84-10.71l-.46-1.45c-11.87-4.41-23.71-8.9-35.62-13.2C419.43,182,419.38,182.11,415.22,188Zm47.41-46.21c2.79,3.33,4.88,5.34,6.34,7.72s3.1,2.74,5.45,2.79c12,.26,24,.62,36.06.94.95,0,1.9,0,3.92,0-6.83-7.77-11.2-17.33-23.41-14.29-.36.09-.78-.08-1.16,0ZM298,224.25c4.06,2.35,7.52,4.26,10.87,6.34,2.5,1.54,4,.8,5.82-1.35,7.73-9,15.7-17.89,23.56-26.82.79-.89,1.52-1.83,2.31-2.78-7-4.58-5.38-4-10.79-.28S319,207.3,313.67,211.44C308.61,215.42,303.71,219.59,298,224.25ZM531.53,718c.69.08,1.12.26,1.43.14,15.19-6.21,30.48-12.21,45.51-18.8,5.21-2.29,7.69-7.64,10.62-13a11.39,11.39,0,0,0-2.27.25q-25.77,10.26-51.49,20.59a3.33,3.33,0,0,0-1.89,1.72C532.67,711.87,532.16,714.91,531.53,718ZM250.68,178.94c-10.09,3.53-20,6.56-27.58,13-6.79,5.78-10.65,14.32-14.3,22.87.81,0,1.09.09,1.28,0q14.89-8.27,29.77-16.58a4.82,4.82,0,0,0,1.85-1.87C244.58,190.9,247.38,185.38,250.68,178.94Zm220.48,4.84c-2-.57-3-1-4.14-1.18-12.58-2.46-25.15-5-37.75-7.28-4.8-.89-5.66-.07-6.68,4.92,13.07,5.11,26.1,10.23,39.16,15.24a2.9,2.9,0,0,0,2.64-.51C466.69,191.46,468.77,187.79,471.16,183.78ZM244.73,195.21c12.51-4.35,24-8.32,35.4-12.35a5.35,5.35,0,0,0,2.81-1.85c2-3.44,3.72-7,5.86-11.21a33.61,33.61,0,0,0-4.49.35c-6.71,1.47-13.32,3.56-20.1,4.45C252,176.2,250,186.6,244.73,195.21Zm431.08,39.66c.63,1.82,1.28,3.35,1.69,4.95,1.8,7.13,3.47,14.29,5.33,21.4a17.67,17.67,0,0,0,2.47,6.21c5.86,7.72,12,15.25,18,22.83.67.84,1.42,1.62,2.44,2.77C706,277.57,687.92,242.56,675.81,234.87ZM332.3,194.63c-2.86-4.88-3-5-7.42-2.66-11.19,6-22.3,12-33.42,18.12a44.31,44.31,0,0,0-4.1,2.92c2.44,2.75,4.6,5.11,6.69,7.54,1.67,1.95,3.09,1.55,4.91,0,6-5,12-9.89,18.12-14.66C322.07,202,327.24,198.38,332.3,194.63ZM426,172l46.07,8.84c.49-3.07.84-6,1.42-8.85s-.78-3.64-3.33-3.71c-13.15-.41-26.3-.72-39.44-1.43C426.74,166.64,425.69,168.18,426,172Zm69.71-35.75.37-1.48c-5.7-3-11.37-6-17.13-8.87a6.89,6.89,0,0,0-4.14-.67c-9.07,1.94-18.1,4.06-27.14,6.12l0,1.21c3.28,2,6.48,4.13,9.88,5.87a10.23,10.23,0,0,0,5.36,1.11c7.48-.75,14.92-1.86,22.39-2.69C488.8,136.48,492.27,136.45,495.73,136.26Zm-210,74,41.78-22.8c-.54-1.5-1-2.79-1.51-4.15a7.81,7.81,0,0,0-1.71.16c-13.23,4.79-26.46,9.57-39.64,14.46a2.83,2.83,0,0,0-1.5,2.27C283.82,203.52,284.81,206.79,285.73,210.24Zm59.84,514.67c1.07,1.05,1.43,1.66,1.94,1.87,6.07,2.46,12,5.78,18.29,7.05,9.21,1.85,18.7,2.33,28.09,3.16,4.89.43,9.82.37,15.84.57-2.51-2.35-4.32-3.66-5.63-5.35-2.11-2.72-4.72-3.51-8-3.6-10.07-.29-20.14-.73-30.18-1.42C359.36,726.75,352.88,725.76,345.57,724.91Zm188-587.4c-11.17-11.19-35.09-17.32-50.42-12.89a6.36,6.36,0,0,0,1.07,1.11q8,4.81,16,9.56a5,5,0,0,0,2.14.85C512.7,136.63,523,137.06,533.6,137.51Zm-60.31,28.38c-.69-2.72-1.21-5.2-2-7.6s-2.14-3.76-5.12-3.43c-8.75,1-17.54,1.53-26.3,2.41-4.86.49-9.69,1.3-14.5,2,.58,5.29.58,5.23,5,5.2s8.79,0,13.19.14C453.25,165,462.91,165.42,473.29,165.89Zm-214,7.11c9.14-1.82,17.19-4.17,25.38-4.86,9-.75,12.09-8.2,18.79-13.3-3.68-.06-6.12-.3-8.52-.1-5.79.46-12.14-.19-17.21,2C270.43,159.94,265.18,166.42,259.26,173ZM125.66,346.1c5.7-10.69,11-20.49,16.11-30.34a8.74,8.74,0,0,0,.48-3.4c.42-6.3.75-12.62,1.23-18.92.15-2,.64-3.94,1-5.92C133.11,305.23,125.62,324.05,125.66,346.1Zm523,298.06c14.94-9.32,40.17-39.85,41.13-49.62a13.5,13.5,0,0,0-1.3.93q-15.39,14.22-30.76,28.47a7.37,7.37,0,0,0-1.93,2.37C653.44,632,651.2,637.8,648.67,644.16ZM282.08,196.27c7.84-3.06,14.29-5.69,20.84-8.1s13.14-4.79,19.83-6.79c3.26-1,4-2.78,3.36-5.68-.3-.11-.56-.3-.78-.26-12.7,2.56-25.41,5.1-38.09,7.78-1.12.23-2.7,1.18-3,2.11C283.34,188.6,282.89,192,282.08,196.27Zm-66.6.12c-13.91,6-34.25,29.43-36.34,42.1a5,5,0,0,0,1-.47q11.54-9.18,23-18.4a6.52,6.52,0,0,0,1.77-2C208.49,210.58,212,203.52,215.48,196.39Zm370.16-41c1,1.36,1.29,1.84,1.65,2.29,4.66,5.87,9.29,11.77,14,17.56a13.49,13.49,0,0,0,3.85,3.05c7.82,4.33,15.69,8.57,23.55,12.83,1,.55,2.08,1.07,3.12,1.6C620.72,175.35,605.39,163.5,585.64,155.41Zm-164.85-2.49c2.25,4.45,2.45,4.44,6.7,4,12.23-1.43,24.46-2.75,36.69-4.14,1.05-.12,2.09-.4,3.94-.77-2.29-2.59-4-4.49-5.68-6.42a6,6,0,0,0-6.55-2.2c-9,2.32-18.14,4.46-27.18,6.81C426,150.84,423.46,152,420.79,152.92Zm49.64-29.7c-12.59-8.19-34.21-6.9-43.09,2.62,5.1,1.6,10.13,3.22,15.19,4.74a4.33,4.33,0,0,0,2.28-.11C453.28,128.1,461.74,125.68,470.43,123.22Zm-184,57.61c1-.13,1.64-.18,2.26-.31C300.44,178,312.2,175.28,324,173c3.41-.65,4.84-2.26,5.51-5.59a18.21,18.21,0,0,0-2.79-.33c-8.78.36-17.57.64-26.34,1.21C292.1,168.86,288.68,172,286.4,180.83Zm168.79-40,.33-1c-2.88-1.61-5.78-3.21-8.65-4.85a7.08,7.08,0,0,0-7.3-.17c-3.91,2-8.14,3.27-12.11,5.11-5,2.3-9.79,4.87-14.93,7.44,4.42,3.76,5.09,3.9,8.76,2.78,5.55-1.69,11.11-3.37,16.71-4.91S449.46,142.31,455.19,140.84Zm-132.72.92c-8.24-1.71-15.31-5.09-22.73-.18-5.54,3.67-11.32,7-17,10.44a209.92,209.92,0,0,0,23.14.49,3,3,0,0,0,1.38-.63C312,148.75,316.7,145.61,322.47,141.76Zm-27.36,24c12.29-.38,23.12-.89,33.94-.94,4,0,5.51-2.46,8.2-6-10.27-1.33-19.68-2.56-29.1-3.75a2,2,0,0,0-1.45.43C303.06,158.64,299.46,161.86,295.11,165.73Zm-24.79-7.48c-18.3,2.3-30.1,13.81-41.16,26.49,5.1-1.77,10-3.9,15-5.93,3.45-1.42,7.63-1.93,10.29-4.23C260,169.73,264.85,164,270.32,158.25ZM740.07,396.08c-.93,5.11-1.22,9.16-2.43,12.91-3.25,10-5.08,20-2.13,30.33a14.71,14.71,0,0,1,.25,2.31l1.47,11.85C743.09,442.13,743.19,408,740.07,396.08ZM438.33,132.51l0-1.09c-4.6-1.13-9.19-2.32-13.81-3.33a4.1,4.1,0,0,0-3,.46c-6.64,4.83-13.21,9.77-20.32,15.07,4.77,2.25,8.38,3.73,12.38.57,1.89-1.48,4.31-2.3,6.54-3.33C426.21,138.05,432.28,135.29,438.33,132.51Zm1.24-16.36v-1c-7.71-.51-15.4-1.1-23.11-1.5-5.41-.27-11.42,3.94-13.73,9.43,6.17.62,12.3,1.26,18.42,1.82a4.36,4.36,0,0,0,2.27-.43C428.82,121.72,434.19,118.93,439.57,116.15ZM588.18,694c17.1-9.61,34.43-19,46.89-34.91a7.42,7.42,0,0,0-3.09,1.23c-10.35,6.35-20.39,13.28-31.14,18.84C594.32,682.57,590.56,687.33,588.18,694ZM150.46,576.83c1.91,9.55,25.92,43.31,33.69,45.6-1.58-3-3.12-5.83-4.54-8.7a71.5,71.5,0,0,1-4.22-9.12c-1.56-4.76-4.55-8.15-8.27-11.35-4.79-4.12-9.1-8.8-13.6-13.26C152.66,579.16,151.85,578.27,150.46,576.83ZM347,152.2c-4.86-2.32-9.27-4.45-13.71-6.53-3.79-1.77-7.47-3.46-11.58-.36-3.26,2.47-6.91,4.44-11.14,7.1,8.5,1.37,15.88,2.06,23,3.87C338.86,157.63,342.79,156.43,347,152.2Zm41.78-10.09c6.44,2.18,11.07,1.36,15.15-3.22,2.56-2.85,6-4.93,9.05-7.32,1.68-1.32,3.41-2.59,5.12-3.88l-.25-1c-5.63-.32-11.26-.69-16.9-.91a3.08,3.08,0,0,0-2.28,1.15C395.34,131.86,392.16,136.85,388.75,142.11Zm-37.54-9.48c3.68,4.77,6.61,8.7,9.7,12.5,1.27,1.55,10.92-.22,11.72-2a1.82,1.82,0,0,0,.16-.76c-.12-4.62-.26-9.24-.39-14Zm24,10.65a49.78,49.78,0,0,0,5.32-.13c2-.26,4.9-.15,5.75-1.36,3.46-4.92,6.28-10.29,9.82-16.32-6.9.64-12.94,1.11-18.93,1.87a3.42,3.42,0,0,0-2.15,2.51C374.85,134.21,375.07,138.58,375.18,143.28ZM329.45,141c7.34,3.66,13.53,6.77,19.77,9.78a3.2,3.2,0,0,0,2.24-.18c2.49-1,4.94-2.12,8.17-3.53-3.5-4.25-6.69-8.22-10-12.07a2.75,2.75,0,0,0-2.42-.57C341.55,136.42,336,138.57,329.45,141ZM311,135.82l.29,1.05c2.63.55,5.37.79,7.87,1.71,4.83,1.77,9.1,1.17,13.63-1.28,4.12-2.24,8.73-3.6,13.22-5.38-4.46-6-7.06-6.9-13.28-4.85-1.46.48-2.92,1-4.35,1.6C322.57,131,316.78,133.44,311,135.82Zm62.11-18.2-31.65,6.31c2.67,2.37,4.21,3.92,5.95,5.21,1,.71,2.34,1.6,3.32,1.39q9.9-2,19.68-4.61a4,4,0,0,0,2.25-2.56A32.79,32.79,0,0,0,373.1,117.62ZM725.43,523.28c-3.15,5-5.85,10.43-9.54,15-6.24,7.75-10.34,16.2-11.58,26.1a69.07,69.07,0,0,1-2.1,8.39l1,.32C713.79,558,720.84,541.31,725.43,523.28ZM375.61,124.69c7.21-.45,14.15-.87,21.09-1.35a3.49,3.49,0,0,0,2.11-.8c2.62-2.62,5.12-5.36,7.91-8.32a10.51,10.51,0,0,0-2.58-.52c-7.59.63-15.21,1.1-22.77,2C375,116.56,374.33,117.83,375.61,124.69Zm122-4.54c-15.61-6-35-9.85-42.71-4.92C468.59,120.47,482.57,124.52,497.64,120.15ZM566,144.78c-13.58-9.4-28.12-16.29-44.57-18.58a19.28,19.28,0,0,0,4.29,3.11c5.16,3.24,9.93,7.53,15.52,9.54C549.22,141.7,557.76,142.88,566,144.78ZM124.38,509c-.64-8.35-1.26-16.71-1.91-25.06-.13-1.79.11-3.77-.57-5.34-2.93-6.72-6.14-13.33-9.62-20.77C114.13,475.85,116.69,493,124.38,509Zm599.13-184.5c.24-8.51-12.86-39.85-17.81-45.35,2.68,10.33,2.4,20.69,9,29.15,2.12,2.72,3.41,6.07,5.07,9.14C721,319.74,722.26,322.1,723.51,324.45ZM262.16,156.55c9.24.33,26.06-8,34.32-17C283.44,141.85,273.08,149.73,262.16,156.55Zm117.21,43.57c9.76-.06,10.38-1,6.37-8.71-.36-.69-.72-1.37-1.09-2q-3.18-5.79-6.37-11.57l-.89.36C378,185.42,378.7,192.69,379.37,200.12Zm-4.44-21.42-1.1-.12c-2.19,7.55-4.37,15.09-6.74,23.25,3-.18,5-.38,7.05-.41s3-1,2.76-3.16C376.21,191.75,375.58,185.22,374.93,178.7ZM270.57,700c-7.74-13.77-22.34-16.76-34.29-23.9l-.87,1.37ZM382.16,177.19l-.84.83c3.08,5.93,6.12,11.88,9.31,17.75A2.89,2.89,0,0,0,393,197c2.34-.76,4.55-1.9,7.51-3.2Zm-25.66,24a32.88,32.88,0,0,0,5.45.55c1.09-.05,2.86-.7,3.1-1.47,2.13-6.7,4-13.5,5.92-20.27l-.48-.16C365.87,186.84,361.26,193.88,356.5,201.16ZM346.19,730.29l.68-1.67c-4.07-1.92-8-4.41-12.26-5.65-8.05-2.34-16.31-4-24.49-5.88-1.18-.27-2.39-.5-3.58-.76C319.13,723,332.64,726.74,346.19,730.29ZM179.64,228.43a162.64,162.64,0,0,0-22,32.59C167.19,251.69,176.49,242.18,179.64,228.43Zm207.14-52-.68,1c5.16,4.83,10.29,9.68,15.51,14.43a2.65,2.65,0,0,0,2.38.22c1.87-.94,3.6-2.16,6.27-3.82ZM113.9,377.33l1.52.4c3.09-13,10.49-25.14,6.58-39.54Zm517.38-193.2-.82.77c5.1,9.24,19.63,23.4,27.64,26.93l.72-.73ZM345.5,198.18c6.62,3.36,7.09,3.22,10.3-1.79,2.17-3.38,4.43-6.69,6.63-10,1.05-1.61,2.06-3.24,3.09-4.86l-.95-.75C358.34,186.42,352.12,192.12,345.5,198.18Zm45.15-23.73-.31.91c6.05,3.14,12.11,6.25,18.14,9.44,4.26,2.25,6,1.6,8.27-3.59Zm-53.53,19.66c5.19,4.16,5.15,4.13,9,.45s7.93-7.4,11.89-11.12c.83-.77,1.59-1.61,2.37-2.42l-.78-.89Zm84.64-20-27.13-2.31-.14,1c6.92,1.9,13.85,3.78,20.77,5.72C419.77,179.82,420.17,179.61,421.76,174.13ZM525,724.64l-.28-.94-50,11.76c.12.48.23,1,.35,1.45C492,733.92,508.91,730.94,525,724.64ZM455.08,111.26c-10.94-2.45-31.88-2.51-35.33-.24C441,114.5,446.88,114.57,455.08,111.26Zm-91.57,37.43,9.55,14.93.76-.29c-.3-5.36-.61-10.73-.93-16.51Zm12.72,13.68.92.21c2.37-5.55,4.75-11.1,7.44-17.42a59.93,59.93,0,0,0-7.22.81,3.08,3.08,0,0,0-1.91,2.22C375.56,152.92,375.94,157.65,376.23,162.37Zm-6.41.53c-2.38-3.68-4.88-7.73-7.6-11.62a3.31,3.31,0,0,0-2.8-1.11,51.06,51.06,0,0,0-6.29,2.35Zm-14.2,16.84-.39-1.16-24,10.16c1.91,2.11,2.46,4.95,5.48,3C343.05,187.81,349.33,183.76,355.62,179.74Zm68.53,560.52c15.88,1.19,31.74-.67,48.06-2.79-.67-1-.9-1.57-1.08-1.56Q447.64,738,424.15,740.26ZM380.32,160.89l.87.52,14.09-15.08-.37-1.15c-2.64.37-6.66-.2-7.66,1.28C384.3,150.84,382.54,156,380.32,160.89Zm43.23,6-25.82,1.75,0,1c7.29.7,14.59,1.25,21.86,2.15C423.42,172.25,424.19,170.68,423.55,166.92Zm-69.26,9.45-.31-.89c-7.23,1.86-14.42,3.88-21.71,5.5-3.82.86-3.91,2.52-2,5.52Zm10.58-11.52.6-1.07c-3.9-2.44-7.77-4.93-11.7-7.32-4.49-2.74-5.44-2.55-9.83,1.86Zm32.24.11.18,1.31,26.13-1.81c-.46-2.57-.35-4.71-3.45-4.07C412.36,162,404.73,163.45,397.11,165ZM336,164.7l23.68,2c-4.92-2.44-10.06-3.75-15-5.51C340.94,159.84,338.41,160.81,336,164.7Zm69.22-16.06-.12-1.16c-2.1-.25-5-1.49-6.15-.56-4.52,3.75-8.47,8.17-12.63,12.35l.84.94Zm-14.44,12,.48.86,22.6-9.07v-1.29c-1.87-.38-4.22-1.67-5.52-1C402.33,153.31,396.61,157.05,390.78,160.59ZM420,158l.32-1.32c-1.33-.8-3-2.57-3.93-2.26-7,2.36-13.93,5.14-20.87,7.78l.28.62Zm-65.68,14.9-.25-.81c-7.29.69-14.58,1.4-21.87,2.06-3.29.3-3.89,2.11-3.19,5.17Zm.54-3.19.15-1.12c-6.25-.41-12.52-.68-18.76-1.31-3.52-.35-4.51,1.44-5,4.56Zm-121.72,6.54-.93-.81-22.51,19.77C220.23,192,226.42,183.83,233.13,176.26Zm67.65-41.08.76,2,30.53-12.57-.42-1.13ZM554.74,714l-.35-1-24.94,9,.6,1.59Zm182.1-238,1.41.25L740.56,459l-2-.22Q737.71,467.42,736.84,476ZM391.31,111.15l.21.93,20.81-1.16-.12-1.49Z"/><path d="M111.39,484.32S311.93,306.47,705.79,268c14.87,38.49,39.51,111.36,39.51,111.36s-450,86.95-586.84,222.54C114.66,539.44,111.39,484.32,111.39,484.32Z"/><path class="cls-1" d="M108.39,492.46S346.33,310.82,713.14,275c24.09,33.05,32.52,97.57,32.52,97.57s-415,68.92-597.57,226.85C107.3,541.24,108.39,492.46,108.39,492.46Z"/><path d="M95.39,506.46S341.66,307.44,737.45,277c25.34,33.05,28.21,89.57,28.21,89.57s-439,61.92-628.51,236.85C94.24,545.24,95.39,506.46,95.39,506.46Z"/><circle class="cls-2" cx="427.5" cy="424" r="392.94"/><path d="M426.66,88.44c185.29,0,335.5,150.21,335.5,335.5S612,759.44,426.66,759.44,91.16,609.23,91.16,423.94s150.21-335.5,335.5-335.5m0-45A380.59,380.59,0,0,0,278.54,774.52,380.59,380.59,0,0,0,574.78,73.36,378.21,378.21,0,0,0,426.66,43.44Z"/><text class="cls-3" transform="matrix(0.83, -0.55, 0.51, 0.77, 146.38, 561.74)">T</text><text class="cls-3" transform="matrix(0.85, -0.52, 0.48, 0.78, 175.41, 542.61)">h</text><text class="cls-3" transform="translate(204.92 524.47) rotate(-29.94) scale(1 0.92)">e</text><text class="cls-3" transform="translate(234.26 507.67) rotate(-28.65) scale(1 0.92)"> </text><text class="cls-3" transform="translate(252.25 497.8) rotate(-27.44) scale(1 0.92)">P</text><text class="cls-3" transform="translate(279.88 483.45) rotate(-25.92) scale(1 0.92)">h</text><text class="cls-3" transform="matrix(0.91, -0.42, 0.39, 0.84, 311.21, 468.34)">i</text><text class="cls-3" transform="translate(325.15 461.92) rotate(-24.07) scale(1 0.92)">l</text><text class="cls-3" transform="matrix(0.92, -0.39, 0.36, 0.85, 339.13, 455.6)">a</text><text class="cls-3" transform="translate(369 442.94) rotate(-21.45) scale(1 0.92)">d</text><text class="cls-3" transform="matrix(0.94, -0.34, 0.31, 0.86, 398.61, 431.3)">e</text><text class="cls-3" transform="translate(430.43 419.83) rotate(-18.87) scale(1 0.92)">l</text><text class="cls-3" transform="translate(444.27 412.85) rotate(-17.59) scale(1 0.82)">p</text><text class="cls-3" transform="matrix(0.96, -0.27, 0.25, 0.89, 482.85, 402.79)">h</text><text class="cls-3" transform="matrix(0.97, -0.25, 0.23, 0.89, 516.32, 393.4)">i</text><text class="cls-3" transform="translate(531.05 389.47) rotate(-13.55) scale(1 0.92)">a</text><text class="cls-3" transform="translate(559.9 382.57) rotate(-12.42) scale(1 0.92)"> </text><text class="cls-3" transform="translate(579.92 378.08) rotate(-11.08) scale(1 0.92)">G</text><text class="cls-3" transform="matrix(0.99, -0.17, 0.16, 0.91, 614.95, 371.35)">l</text><text class="cls-3" transform="translate(630.03 368.65) rotate(-8.68) scale(1 0.92)">o</text><text class="cls-3" transform="matrix(0.99, -0.12, 0.11, 0.91, 663.26, 363.59)">b</text><text class="cls-3" transform="translate(696.46 359.51) rotate(-5.42) scale(1 0.92)">e</text><path class="cls-4" d="M417,87.34a54.55,54.55,0,1,0-74.18,61A52.66,52.66,0,0,0,387,147.09,54.65,54.65,0,0,0,417,87.34Zm-43.47,63.43a51.38,51.38,0,0,1-21.23-.26,49.75,49.75,0,1,1,36.94-5.58A51.51,51.51,0,0,1,373.57,150.77Zm39.48-58.3a50.07,50.07,0,1,0-74.13,53A51.83,51.83,0,1,1,400.81,136,50,50,0,0,0,413.05,92.47Zm-13.37,45.78a52.69,52.69,0,1,0-69.86,2.08,54.23,54.23,0,1,1,69.86-2.08Z"/><path class="cls-5" d="M406.58,95.59a43.35,43.35,0,1,0-55.05,49.85,41.16,41.16,0,0,0,14.88,2,38.22,38.22,0,0,0,6.33-.71,39.13,39.13,0,0,0,14.71-6.2,45,45,0,0,0,19.13-45Zm-84.76,16.66a43,43,0,1,1,76.63,17.51A41.48,41.48,0,1,0,342,140.86,42.92,42.92,0,0,1,321.82,112.25ZM347.65,143a39,39,0,1,1,52.29-17.22A40.55,40.55,0,0,1,347.65,143Zm56.12-42.47a39.36,39.36,0,1,0-62.7,38.69A40.63,40.63,0,1,1,403,118.84,39.21,39.21,0,0,0,403.77,100.55Z"/><path class="cls-1" d="M358.78,77.11a33,33,0,1,0,38.75,26A33,33,0,0,0,358.78,77.11ZM333.07,115.8a32.69,32.69,0,1,1,60.69,9.45A31.76,31.76,0,1,0,361.67,142,32.75,32.75,0,0,1,333.07,115.8Zm3.63,1.89A29.92,29.92,0,1,1,393,124.83,30.88,30.88,0,0,1,350,137.13,29.8,29.8,0,0,1,336.7,117.69Zm59-11.6a30.23,30.23,0,1,0-52.08,26.1,30.94,30.94,0,1,1,52.11-14.61A30,30,0,0,0,395.72,106.09Z"/><path d="M382.1,84.28l-1.4-7.12-41.53,8.17,1.39,7.11-20.45,4-1.31-6.67c-.55-2.77,2.31-8.45,3.07-9.88l-1.69-8.6a3.43,3.43,0,0,1,2.7-4l17-3.34.87-3.6,29-5.7,2.17,3,17-3.34a3.43,3.43,0,0,1,4,2.7l1.69,8.6c1.24,1,6,5.22,6.58,8l1.31,6.67Z"/><path d="M372.72,147a7.23,7.23,0,0,1-8.05-4.35l-34,6.68-.14-.86c-.73-4.48,0-13.36,7.83-14.9,4.22-.83,5.71-6.54,6.21-11.18a54.66,54.66,0,0,0,0-10.34l-2.74-13.94c-1.62-8.28,7.49-11,7.59-11h0l22.3-4.38h0c.1,0,9.58-.92,11.2,7.36l2.74,13.94a55.33,55.33,0,0,0,4,9.58c2.22,4.09,5.75,8.8,10,8,7.87-1.55,11.87,6.41,12.88,10.83l.2.85-23.68,4.65-5-6.81,1.19-.24h-1.5l3.55,7.41-8.78,1.72A7.24,7.24,0,0,1,372.72,147Zm12.55-16.22.12,0-1.93-3.42Z"/><path class="cls-1" d="M395.43,65.15l-1.63-8.31a4.29,4.29,0,0,0-5-3.37l-16.47,3.24-1.55-2.13-.63-.87-1.06.2-12.95,2.55-15,2.95-1.06.21-.25,1-.63,2.56-16.47,3.24a4.28,4.28,0,0,0-3.37,5L321,79.78c-1,2-3.59,7.28-3,10.17l1.15,5.85.33,1.65,1.65-.33,18.8-3.69,1.43-.28a9.55,9.55,0,0,0-.29,5.08l2.73,13.89c.56,5.38.63,19.35-5.59,20.57-4.46.88-7.34,4-8.33,9a21.54,21.54,0,0,0-.16,6.9l.28,1.71,1.71-.33,32.5-6.39a8,8,0,0,0,15.15-3l7.07-1.39,2.14-.42-.44-.91v0l.63.85,1.05-.2,22.3-4.39,1.7-.33-.39-1.7a21.59,21.59,0,0,0-2.75-6.32c-2.81-4.25-6.65-6-11.11-5.15-6.22,1.22-11.44-11.73-13-16.92l-2.73-13.9a9.62,9.62,0,0,0-2.19-4.59l1.43-.28,18.8-3.69,1.65-.33-.32-1.65-1.15-5.85C401.5,70.54,397.11,66.58,395.43,65.15ZM360.1,82.07l12.69-2.49-1.58,2.29-10.42,2-.64.12-10.74,2.11-2.34-1.52Zm-15.05,1.24-5.47-3.57,12.23-4.3.62-.22.18-.64L356,62.07l7.87,10.29.41.53.66,0,12.94-.65-3.71,5.38-14.39,2.83Zm25.32.74L375,96.16l-12.42-3.71-.64-.19-.52.42-10.09,8.13-.31-13v-.29l9.48-1.86.63-.13,9.16-1.8Zm-22.48,2.62a11.88,11.88,0,0,0-6.41,6.07l-.25-1.29L340.16,86l5.14-1Zm52,35.62c9.15-1.8,11.9,10.19,11.9,10.19l-22.29,4.38-3.94-5.32,1.16-.24L382,122.94l1.66.62L375,111.24l5.51,10.62-1.47-1.1,4.8,9.14h-1.47l3.66,7.63-8.44,1.66a6.34,6.34,0,0,1-12.4,2.44l-33.88,6.65s-2-12.14,7.16-13.94,6.93-22.47,6.93-22.47l-2.75-14c-1.45-7.37,6.45-9.91,7-10.07l.09,0,.38,15.52,12.09-9.74,14.87,4.44-5.53-14.5.07-.09.29-.06s8.79-.94,10.29,6.69l2.74,14S390.72,124.08,399.86,122.29Zm-27-40.58,1.71-2.48L380,78.15l1.07,5.46.25,1.29A11.93,11.93,0,0,0,372.86,81.71Zm28.7-2.12-18.8,3.7-1.39-7.12-5.43,1.07,4.43-6.42-15.5.78-9.43-12.34-4.05,15L336.75,79.4l6.52,4.26-5.09,1,1.39,7.12-18.8,3.69-1.14-5.84c-.55-2.8,3.13-9.59,3.13-9.59L321,71.14a2.57,2.57,0,0,1,2-3l17.54-3.45.87-3.6,15-2.94,13-2.55,2.17,3,17.54-3.44a2.57,2.57,0,0,1,3,2l1.75,8.9s6,4.89,6.52,7.69Z"/><polygon points="362.07 92.96 350.72 102.11 350.37 87.54 338.16 79.57 351.91 74.73 355.72 60.66 364.57 72.24 379.12 71.52 370.85 83.51 376.03 97.13 362.07 92.96"/><text class="cls-6" transform="matrix(0.99, 0.11, -0.09, 0.82, 370.36, 792.58)"> </text><text class="cls-6" transform="matrix(1, 0.08, -0.07, 0.82, 383.26, 793.97)"> </text><text class="cls-6" transform="translate(396.21 795.04) rotate(3.32) scale(1 0.82)">1</text><text class="cls-6" transform="translate(411.58 795.96) rotate(1.07) scale(1 0.82)">7</text><text class="cls-6" transform="translate(435.76 796.34) rotate(-1.9) scale(1 0.82)">7</text><text class="cls-6" transform="translate(460 795.43) rotate(-5.18) scale(1 0.82)">6</text><circle class="cls-1" cx="70.66" cy="473.44" r="4"/><circle class="cls-1" cx="66.66" cy="423.44" r="4"/><circle class="cls-1" cx="69.98" cy="374.62" r="4"/><circle class="cls-1" cx="81.33" cy="326.26" r="4"/><circle class="cls-1" cx="95.89" cy="278.3" r="4"/><circle class="cls-1" cx="119.2" cy="233.88" r="4"/><circle class="cls-1" cx="148.08" cy="194.37" r="4"/><circle class="cls-1" cx="183.48" cy="159.54" r="4"/><circle class="cls-1" cx="221.24" cy="129.65" r="4"/><circle class="cls-1" cx="267.84" cy="101.57" r="4"/><circle class="cls-1" cx="325.28" cy="765.73" r="4"/><circle class="cls-1" cx="276.83" cy="748.8" r="4"/><circle class="cls-1" cx="230.73" cy="723.85" r="4"/><circle class="cls-1" cx="186.66" cy="691.95" r="4"/><circle class="cls-1" cx="154.38" cy="657.36" r="4"/><circle class="cls-1" cx="125.22" cy="618.55" r="4"/><circle class="cls-1" cx="98.93" cy="572.98" r="4"/><circle class="cls-1" cx="83.77" cy="525.68" r="4"/><circle class="cls-1" cx="780.7" cy="448.86" r="4"/><circle class="cls-1" cx="781.68" cy="398.71" r="4"/><circle class="cls-1" cx="775.41" cy="350.17" r="4"/><circle class="cls-1" cx="761.17" cy="302.6" r="4"/><circle class="cls-1" cx="743.74" cy="255.59" r="4"/><circle class="cls-1" cx="717.8" cy="212.67" r="4"/><circle class="cls-1" cx="686.59" cy="174.97" r="4"/><circle class="cls-1" cx="649.15" cy="142.34" r="4"/><circle class="cls-1" cx="606.2" cy="116.22" r="4"/><circle class="cls-1" cx="562.06" cy="92.47" r="4"/><circle class="cls-1" cx="514.22" cy="77.4" r="4"/><circle class="cls-1" cx="465.88" cy="69.74" r="4"/><circle class="cls-1" cx="546.18" cy="761.98" r="4"/><circle class="cls-1" cx="595.52" cy="736.15" r="4"/><circle class="cls-1" cx="640.03" cy="710.47" r="4"/><circle class="cls-1" cx="678.1" cy="675.97" r="4"/><circle class="cls-1" cx="708.23" cy="637.49" r="4"/><circle class="cls-1" cx="735" cy="597" r="4"/><circle class="cls-1" cx="758.49" cy="549.92" r="4"/><circle class="cls-1" cx="770.77" cy="501.8" r="4"/></svg>