<svg id="Layer_1" data-name="Layer 1" xmlns="http://www.w3.org/2000/svg" viewBox="0 0 734.84 112.63"><path d="M13.46,81.31a5.15,5.15,0,0,0,2-3.24V4.52H2.32a2.23,2.23,0,0,0-1.62.7A2.33,2.33,0,0,0,0,7V0H38.86V7a2.33,2.33,0,0,0-.7-1.74,2.23,2.23,0,0,0-1.62-.7H24.48V78a4.42,4.42,0,0,0,.69,1.86,7.41,7.41,0,0,0,.52.87,2,2,0,0,0,.76.63l-2-.11v.11Z"/><path d="M42.22,81.43v-.12A3.81,3.81,0,0,0,45.12,79V3.36a4.37,4.37,0,0,0-1-2.08A4.46,4.46,0,0,0,42,.23V.12H54.4V33.18A13.6,13.6,0,0,1,63,30.39a13.12,13.12,0,0,1,5.68,1.16,21.41,21.41,0,0,1,2.49,1.34,11.43,11.43,0,0,1,2.15,1.68,18.67,18.67,0,0,1,3.13,4.52,12.87,12.87,0,0,1,1.16,5.57V79a3.82,3.82,0,0,0,2.9,2.32v.12H64.84v-.12a3.12,3.12,0,0,0,2.44-1.5.37.37,0,0,0,.11-.24.35.35,0,0,1,.12-.23c.08-.07.12-.13.12-.17a.3.3,0,0,1,.11-.18V40.6A6.73,6.73,0,0,0,61,33.87a6.41,6.41,0,0,0-4.4,1.63,7,7,0,0,0-2.21,4.29V79.11a3.54,3.54,0,0,0,2.79,2.2v.12Z"/><path d="M96.28,80.15a13.11,13.11,0,0,1-5-3.48,13.15,13.15,0,0,1-3.48-5,16.54,16.54,0,0,1-1.28-6.27v-19a16.45,16.45,0,0,1,1.28-6.26A15.7,15.7,0,0,1,91.29,35a15.26,15.26,0,0,1,5-3.36,16.45,16.45,0,0,1,6.26-1.28h.12a16.17,16.17,0,0,1,6.14,1.28,11.82,11.82,0,0,1,2.73,1.45A29.7,29.7,0,0,1,113.91,35a15.24,15.24,0,0,1,4.64,11.37V57.3H95.7v13a.46.46,0,0,0,.11.35v.47a9.57,9.57,0,0,0,3.48,5.22,9.17,9.17,0,0,0,5.8,2.32h.58a10.35,10.35,0,0,0,10-8.36h2.67a16.11,16.11,0,0,1-5.11,7.31,11.48,11.48,0,0,1-3.94,2.67,13.85,13.85,0,0,1-3.25.81h-.46a.11.11,0,0,1-.12.12h-.58a.46.46,0,0,1-.35.11h-1.27a.68.68,0,0,1-.47.12h-.23A16.45,16.45,0,0,1,96.28,80.15ZM110,40a6.28,6.28,0,0,0-1.85-4.64,7.82,7.82,0,0,0-4.64-2.32h-.81a7.45,7.45,0,0,0-5.11,2,6.82,6.82,0,0,0-2.09,5V52.66H110Z"/><path d="M150,78.3a.46.46,0,0,1,.12-.35V3.83A.35.35,0,0,1,150,3.6,4.22,4.22,0,0,0,147.66.35h16.71a19.79,19.79,0,0,1,6.84,1.27,15.65,15.65,0,0,1,5.45,3.48,18.58,18.58,0,0,1,3.71,5.11,14.76,14.76,0,0,1,1.4,6.26v9.17a14.25,14.25,0,0,1-1.4,6.26,15.33,15.33,0,0,1-3.71,5.1,15.65,15.65,0,0,1-5.45,3.48,19.81,19.81,0,0,1-6.84,1.28h-5.11V78.3a4.84,4.84,0,0,0,2.32,3.25H147.66A4.23,4.23,0,0,0,150,78.3Zm24-66.24a16.74,16.74,0,0,0-2.66-4.29A12.48,12.48,0,0,0,167.5,5a11.43,11.43,0,0,0-4.76-1.05h-3.48v34h3.48a11.58,11.58,0,0,0,4.76-1,10.5,10.5,0,0,0,3.83-2.9A16.61,16.61,0,0,0,174,29.81a15.12,15.12,0,0,0,.93-5.22V17.17A14.9,14.9,0,0,0,174,12.06Z"/><path d="M185,81.43v-.12a3.81,3.81,0,0,0,2.9-2.32V3.36a4.37,4.37,0,0,0-1-2.08,4.46,4.46,0,0,0-2.09-1V.12h12.41V33.18a13.6,13.6,0,0,1,8.59-2.79,13.12,13.12,0,0,1,5.68,1.16A21.41,21.41,0,0,1,214,32.89a11.43,11.43,0,0,1,2.15,1.68,18.67,18.67,0,0,1,3.13,4.52,12.73,12.73,0,0,1,1.16,5.57V79a3.82,3.82,0,0,0,2.9,2.32v.12H207.63v-.12a3.12,3.12,0,0,0,2.44-1.5.33.33,0,0,0,.11-.24.35.35,0,0,1,.12-.23c.08-.07.12-.13.12-.17s0-.1.11-.18V40.6a6.74,6.74,0,0,0-11.13-5.1,7,7,0,0,0-2.21,4.29V79.11a3.54,3.54,0,0,0,2.79,2.2v.12Z"/><path d="M228.63,78.18V33.64a4.8,4.8,0,0,0-2.44-3.36h2.44v-.12h9.28v48a4.46,4.46,0,0,0,2.43,3.25H226.19A4.47,4.47,0,0,0,228.63,78.18Zm8.23-54.28a4.9,4.9,0,0,1-3.59,1.5,4.56,4.56,0,0,1-3.48-1.5,4.53,4.53,0,0,1-1.51-3.48,4.9,4.9,0,0,1,1.51-3.6,4.72,4.72,0,0,1,3.48-1.39,5.37,5.37,0,0,1,3.59,1.39,5.39,5.39,0,0,1,1.4,3.6A4.73,4.73,0,0,1,236.86,23.9Z"/><path d="M245.91,78.18V3.36A4.75,4.75,0,0,0,243.48.12h11.83V78.41a5,5,0,0,0,2.2,3h-14A4.46,4.46,0,0,0,245.91,78.18Z"/><path d="M289.18,81.2c-.62-.16-1.05-.27-1.28-.35a8.3,8.3,0,0,1-3.83-3.36,14.08,14.08,0,0,1-3.94,2.78,11.68,11.68,0,0,1-4.87,1,11.11,11.11,0,0,1-2.67-.34,11.62,11.62,0,0,1-6.15-3.48A12.18,12.18,0,0,1,263,70.87a9.32,9.32,0,0,1-.35-2.66v-.7a14.5,14.5,0,0,1,1.05-5.34,13.57,13.57,0,0,1,2.67-4.29q.35-.47.69-.87t.81-.87l1.74-1.39.93-.7a1.11,1.11,0,0,0,.35-.23l.23-.23a.31.31,0,0,0,.23-.12,1.46,1.46,0,0,1,.58-.34.35.35,0,0,1,.24-.12l1.74-1,.69-.47.7-.46a.31.31,0,0,1,.23-.12l.12-.11.46-.24a1.7,1.7,0,0,0,.46-.34,1.62,1.62,0,0,0,.35-.23,1.32,1.32,0,0,1,.35-.24l1.39-1c.16-.16.35-.33.58-.52s.43-.37.58-.53l1.39-1a6.26,6.26,0,0,1,.53-.46c.19-.16.36-.31.52-.47a6.06,6.06,0,0,1,.52-.46,6.1,6.1,0,0,0,.52-.47V38.86a8.32,8.32,0,0,0-2.43-4.18,8.35,8.35,0,0,0-4.64-1.74h-1.4a2.09,2.09,0,0,1-.69.12,1.25,1.25,0,0,0-.58.12A7.35,7.35,0,0,0,269,36.89a4.77,4.77,0,0,1,4.88,4.87,4.74,4.74,0,0,1-.35,1.86,5.09,5.09,0,0,1-1.74,2.08,4.63,4.63,0,0,1-2.79.93,4.09,4.09,0,0,1-3-1.16,4.87,4.87,0,0,1-1.74-2.78v-.23a.11.11,0,0,1-.12-.12v-.81a4.81,4.81,0,0,1,.12-.93,5.33,5.33,0,0,1,.46-2.2A9.76,9.76,0,0,1,266,35.84a13.33,13.33,0,0,1,2.55-2.55c.15-.15.27-.23.35-.23v-.12a2.48,2.48,0,0,0,.4-.23,3.76,3.76,0,0,1,.41-.23l.41-.23a2.48,2.48,0,0,1,.4-.23.31.31,0,0,0,.23-.12,5.72,5.72,0,0,1,.82-.35,5.78,5.78,0,0,0,.81-.23,19,19,0,0,1,5.57-.93,14.91,14.91,0,0,1,5.33.81h.23a.35.35,0,0,0,.24.12c.38.15.77.33,1.16.52s.77.37,1.15.52.74.47,1,.7a8.41,8.41,0,0,1,.93.81,20.29,20.29,0,0,1,3.13,3.94,10.84,10.84,0,0,1,.87,2.38,17.14,17.14,0,0,1,.4,2.5v34a2.49,2.49,0,0,0,.82,2,3.09,3.09,0,0,0,2.09.81.35.35,0,0,0,.23-.12h.58a13.58,13.58,0,0,1-1.86,1.28,2,2,0,0,1-.58.17,2.09,2.09,0,0,0-.58.18L292,81.2h-.58a1.57,1.57,0,0,1-.69.11h-.24A4.56,4.56,0,0,1,289.18,81.2Zm-7.89-4.64A6.39,6.39,0,0,0,283,72V49.18l-.23.24-.23.23-.47.46a2.64,2.64,0,0,0-.58.46l-.23.24a1.5,1.5,0,0,1-.23.17.91.91,0,0,0-.23.17.94.94,0,0,1-.24.18,1.5,1.5,0,0,0-.23.17,2.33,2.33,0,0,0-.81.58,1.93,1.93,0,0,1-.46.35,1.79,1.79,0,0,0-.47.35l-.11.12a.33.33,0,0,0-.24.11l-.23.23-.35.35a.7.7,0,0,0-.46.46l-.35.35a18.29,18.29,0,0,0-2,2.32q-.81,1.17-1.62,2.55a14.53,14.53,0,0,0-.82,1.4q-.35.69-.81,1.5a2.94,2.94,0,0,0-.35,1.28c-.07,0-.11,0-.11.12a18,18,0,0,0-.7,4.17,11.29,11.29,0,0,0,.47,4.64,5.49,5.49,0,0,0,.69,2.21,6.06,6.06,0,0,0,2.21,2.78,5.21,5.21,0,0,0,3.24,1A5.51,5.51,0,0,0,281.29,76.56Z"/><path d="M324.67,78.41c-.62.39-1.25.76-1.91,1.11a13,13,0,0,1-2.15.87,12.39,12.39,0,0,1-4.52.81A12.87,12.87,0,0,1,310.52,80a16,16,0,0,1-4.64-3.13,13.59,13.59,0,0,1-3.13-4.53,12.55,12.55,0,0,1-1.16-5.45V44.54A12.83,12.83,0,0,1,302.75,39a15.3,15.3,0,0,1,3.13-4.53,15.82,15.82,0,0,1,4.64-3.13,14.5,14.5,0,0,1,5.57-1,14.29,14.29,0,0,1,8.58,2.66v-29a1.29,1.29,0,0,0-.11-.69,4.51,4.51,0,0,0-1.05-2.09,4.4,4.4,0,0,0-2.09-1V0h12.42V78.76a3.81,3.81,0,0,0,2.9,2.32v.12H324.67Zm-2.2-2.78a6.17,6.17,0,0,0,2.2-4.18V39.56a6.54,6.54,0,0,0-6.73-5.92,6.35,6.35,0,0,0-4.63,2,6.48,6.48,0,0,0-2,4.76V70.76a6.75,6.75,0,0,0,6.61,6.61A6.65,6.65,0,0,0,322.47,75.63Z"/><path d="M350.19,80.15a13.15,13.15,0,0,1-5-3.48,13.15,13.15,0,0,1-3.48-5,16.54,16.54,0,0,1-1.28-6.27v-19a16.45,16.45,0,0,1,1.28-6.26A15.7,15.7,0,0,1,345.21,35a15.32,15.32,0,0,1,5-3.36,16.54,16.54,0,0,1,6.27-1.28h.11a16.26,16.26,0,0,1,6.15,1.28,11.82,11.82,0,0,1,2.73,1.45A29.7,29.7,0,0,1,367.83,35a15.24,15.24,0,0,1,4.64,11.37V57.3H349.61v13a.46.46,0,0,0,.12.35v.47a9.57,9.57,0,0,0,3.48,5.22,9.15,9.15,0,0,0,5.8,2.32h.58a10.35,10.35,0,0,0,10-8.36h2.66a16,16,0,0,1-5.1,7.31,11.48,11.48,0,0,1-3.94,2.67,13.85,13.85,0,0,1-3.25.81h-.47c0,.08,0,.12-.11.12h-.58a.48.48,0,0,1-.35.11h-1.28a.63.63,0,0,1-.46.12h-.23A16.54,16.54,0,0,1,350.19,80.15ZM363.88,40A6.32,6.32,0,0,0,362,35.38a7.85,7.85,0,0,0-4.64-2.32h-.82a7.44,7.44,0,0,0-5.1,2,6.82,6.82,0,0,0-2.09,5V52.66h14.5Z"/><path d="M380.24,78.18V3.36A4.77,4.77,0,0,0,377.8.12h11.83V78.41a5,5,0,0,0,2.21,3h-14A4.47,4.47,0,0,0,380.24,78.18Z"/><path d="M412,112.63H397.75a4.46,4.46,0,0,0,2.44-3.24V33.64a4.47,4.47,0,0,0-2.44-3.25h11.83v2.44a.66.66,0,0,1,.47-.23,16.46,16.46,0,0,1,8.58-2.21,19.07,19.07,0,0,1,7.31,1.39,19.59,19.59,0,0,1,10,10,19.67,19.67,0,0,1,1.39,7.31V63.22a18.18,18.18,0,0,1-1.39,7.19,19.59,19.59,0,0,1-10,10,16.74,16.74,0,0,1-7.31,1.5,16,16,0,0,1-8.93-2.66v30.16A5.18,5.18,0,0,0,412,112.63Zm13.46-36.77a9,9,0,0,0,2.78-6.61V42.8a10.07,10.07,0,0,0-.7-3.82,18.4,18.4,0,0,0-2.08-3.14,18.2,18.2,0,0,0-3.14-2.08,9.45,9.45,0,0,0-3.59-.7,8.07,8.07,0,0,0-5.8,2.2,9.77,9.77,0,0,0-3.25,5.57V71.22A9.13,9.13,0,0,0,413,76.44a8.08,8.08,0,0,0,5.8,2.21A9.7,9.7,0,0,0,425.48,75.86Z"/><path d="M442.18,81.43v-.12a3.82,3.82,0,0,0,2.9-2.32V3.36a4.46,4.46,0,0,0-1-2.08,4.46,4.46,0,0,0-2.09-1V.12h12.41V33.18a13.59,13.59,0,0,1,8.58-2.79,13.17,13.17,0,0,1,5.69,1.16,21.41,21.41,0,0,1,2.49,1.34,11.77,11.77,0,0,1,2.15,1.68,19,19,0,0,1,3.13,4.52,12.87,12.87,0,0,1,1.16,5.57V79a3.81,3.81,0,0,0,2.9,2.32v.12H464.8v-.12a3.1,3.1,0,0,0,2.43-1.5.35.35,0,0,0,.12-.24.35.35,0,0,1,.12-.23.31.31,0,0,0,.11-.17s0-.1.12-.18V40.6a6.74,6.74,0,0,0-11.14-5.1,7,7,0,0,0-2.2,4.29V79.11a3.54,3.54,0,0,0,2.78,2.2v.12Z"/><path d="M485.79,78.18V33.64a4.79,4.79,0,0,0-2.43-3.36h2.43v-.12h9.28v48a4.5,4.5,0,0,0,2.44,3.25H483.36A4.46,4.46,0,0,0,485.79,78.18ZM494,23.9a4.93,4.93,0,0,1-3.6,1.5A4.56,4.56,0,0,1,487,23.9a4.56,4.56,0,0,1-1.5-3.48,4.93,4.93,0,0,1,1.5-3.6,4.72,4.72,0,0,1,3.48-1.39,5.38,5.38,0,0,1,3.6,1.39,5.38,5.38,0,0,1,1.39,3.6A4.72,4.72,0,0,1,494,23.9Z"/><path d="M529.06,81.2c-.62-.16-1-.27-1.28-.35A8.27,8.27,0,0,1,524,77.49a14.13,14.13,0,0,1-4,2.78,11.65,11.65,0,0,1-4.87,1,11.11,11.11,0,0,1-2.67-.34,11.62,11.62,0,0,1-6.15-3.48,12.23,12.23,0,0,1-3.47-6.62,9,9,0,0,1-.35-2.66v-.7a14.69,14.69,0,0,1,1-5.34,13.57,13.57,0,0,1,2.67-4.29q.35-.47.69-.87c.24-.27.51-.56.82-.87l1.74-1.39.92-.7a1,1,0,0,0,.35-.23l.23-.23a.35.35,0,0,0,.24-.12,1.33,1.33,0,0,1,.58-.34A.31.31,0,0,1,512,53l1.74-1,.69-.47.7-.46a.35.35,0,0,1,.23-.12l.12-.11.46-.24a1.74,1.74,0,0,0,.47-.34,1.52,1.52,0,0,0,.34-.23,1.51,1.51,0,0,1,.35-.24l1.39-1c.16-.16.35-.33.58-.52a6.55,6.55,0,0,0,.58-.53l1.4-1a6.06,6.06,0,0,1,.52-.46,6.1,6.1,0,0,0,.52-.47c.16-.15.33-.31.52-.46a4.88,4.88,0,0,0,.52-.47V38.86a8.18,8.18,0,0,0-2.43-4.18,8.35,8.35,0,0,0-4.64-1.74h-1.39a2.19,2.19,0,0,1-.7.12,1.28,1.28,0,0,0-.58.12,7.33,7.33,0,0,0-4.52,3.71,4.75,4.75,0,0,1,4.87,4.87,4.74,4.74,0,0,1-.35,1.86,5.09,5.09,0,0,1-1.74,2.08,4.63,4.63,0,0,1-2.78.93,4.09,4.09,0,0,1-3-1.16,4.87,4.87,0,0,1-1.74-2.78v-.23a.11.11,0,0,1-.12-.12v-.81a4.81,4.81,0,0,1,.12-.93,5.49,5.49,0,0,1,.46-2.2,10.09,10.09,0,0,1,1.28-2.56,13.33,13.33,0,0,1,2.55-2.55c.16-.15.27-.23.35-.23v-.12a2.6,2.6,0,0,0,.41-.23,3.55,3.55,0,0,1,.4-.23l.41-.23a2.48,2.48,0,0,1,.4-.23.35.35,0,0,0,.24-.12,6.18,6.18,0,0,1,.81-.35,5.08,5.08,0,0,0,.81-.23,19,19,0,0,1,5.57-.93,14.91,14.91,0,0,1,5.33.81h.24a.31.31,0,0,0,.23.12c.39.15.77.33,1.16.52s.77.37,1.16.52.73.47,1,.7a8.41,8.41,0,0,1,.93.81A20.29,20.29,0,0,1,531,37.81a10.84,10.84,0,0,1,.87,2.38,17.15,17.15,0,0,1,.41,2.5v34a2.48,2.48,0,0,0,.81,2,3.11,3.11,0,0,0,2.09.81.33.33,0,0,0,.23-.12H536a12.92,12.92,0,0,1-1.86,1.28,1.91,1.91,0,0,1-.58.17A2.09,2.09,0,0,0,533,81l-1.16.23h-.58a1.54,1.54,0,0,1-.69.11h-.23A4.65,4.65,0,0,1,529.06,81.2Zm-7.89-4.64A6.39,6.39,0,0,0,522.91,72V49.18l-.23.24-.23.23-.47.46a2.9,2.9,0,0,0-.58.46l-.23.24a.91.91,0,0,1-.23.17,1.13,1.13,0,0,0-.23.17,1.12,1.12,0,0,1-.23.18,1.18,1.18,0,0,0-.24.17,2.33,2.33,0,0,0-.81.58,1.75,1.75,0,0,1-.46.35,1.79,1.79,0,0,0-.47.35l-.11.12a.3.3,0,0,0-.23.11l-.24.23-.34.35a.7.7,0,0,0-.47.46l-.35.35a18.29,18.29,0,0,0-2,2.32q-.81,1.17-1.62,2.55a12.6,12.6,0,0,0-.81,1.4c-.24.46-.51,1-.82,1.5a2.92,2.92,0,0,0-.34,1.28.11.11,0,0,0-.12.12,18,18,0,0,0-.7,4.17,11.29,11.29,0,0,0,.47,4.64,5.82,5.82,0,0,0,.69,2.21,6.06,6.06,0,0,0,2.21,2.78,5.24,5.24,0,0,0,3.25,1A5.5,5.5,0,0,0,521.17,76.56Z"/><path d="M587.41,81.31V78.76a18.05,18.05,0,0,1-9.4,2.55,16.13,16.13,0,0,1-7.07-1.5,17.41,17.41,0,0,1-5.8-4A18.09,18.09,0,0,1,561.19,70a16.2,16.2,0,0,1-1.51-7.08V18.44a16.48,16.48,0,0,1,1.51-7.19,18.5,18.5,0,0,1,3.95-5.8,19.3,19.3,0,0,1,2.72-2.26,25.87,25.87,0,0,1,3.08-1.8A17.7,17.7,0,0,1,578,0a18.13,18.13,0,0,1,17.4,12.18,3,3,0,0,1,.35.93c.08.08.12.38.12.93a4,4,0,0,1-1.4,3.24,4.57,4.57,0,0,1-3.36,1.4,4,4,0,0,1-3.71-1.86,4.63,4.63,0,0,1-.93-2.78,4.47,4.47,0,0,1,.93-2.67,8.22,8.22,0,0,0-2.79-6,9.09,9.09,0,0,0-6.38-2.44A8.52,8.52,0,0,0,572,5.45a8.71,8.71,0,0,0-2.67,6.38V69.37a9.12,9.12,0,0,0,8.93,8.93,8.84,8.84,0,0,0,6.5-2.67,8.58,8.58,0,0,0,2.67-6.26V46.63a8.38,8.38,0,0,0-3-3.83,7.81,7.81,0,0,0-4.87-1.51h-.7a2.47,2.47,0,0,1-.81.12v-.69h21v.46a7.4,7.4,0,0,0-2.44,5.57V81.31Z"/><path d="M604.69,78.18V3.36A4.75,4.75,0,0,0,602.26.12h11.83V78.41a5,5,0,0,0,2.2,3h-14A4.46,4.46,0,0,0,604.69,78.18Z"/><path d="M645.29,31.67a20.5,20.5,0,0,1,5.92,4.06,21.93,21.93,0,0,1,3.94,5.91,18.61,18.61,0,0,1,1.39,7.19V62.75a18.09,18.09,0,0,1-1.39,7.2,21.93,21.93,0,0,1-3.94,5.91,18.24,18.24,0,0,1-5.92,4,17.74,17.74,0,0,1-7.31,1.5,16.48,16.48,0,0,1-7.19-1.5,17.51,17.51,0,0,1-5.8-4A17.91,17.91,0,0,1,621.05,70a16.35,16.35,0,0,1-1.51-7.2V48.83a16.34,16.34,0,0,1,1.51-7.19A17.91,17.91,0,0,1,625,35.73a18.2,18.2,0,0,1,2.73-2.26,25.74,25.74,0,0,1,3.07-1.8A18,18,0,0,1,638,30.28,19.47,19.47,0,0,1,645.29,31.67Zm-.46,4.06a9.17,9.17,0,0,0-6.73-2.79,8.42,8.42,0,0,0-6.5,2.79,9.18,9.18,0,0,0-2.78,6.73V68.79a9.16,9.16,0,0,0,2.78,6.72,8.42,8.42,0,0,0,6.5,2.79,9.17,9.17,0,0,0,6.73-2.79,9.64,9.64,0,0,0,2.66-6.72V42.46A9.65,9.65,0,0,0,644.83,35.73Z"/><path d="M660,81.55v-.12a3.83,3.83,0,0,0,2.9-2.32V3.48a4.44,4.44,0,0,0-1-2.09,4.44,4.44,0,0,0-2.09-1V.23H672.2V33.29a13.64,13.64,0,0,1,8.58-2.78,13,13,0,0,1,5.69,1.16A21.33,21.33,0,0,1,689,33a11.77,11.77,0,0,1,2.15,1.68,18.92,18.92,0,0,1,3.13,4.53,12.83,12.83,0,0,1,1.16,5.56V67.28a12.55,12.55,0,0,1-1.16,5.45,16,16,0,0,1-3.13,4.52,15.84,15.84,0,0,1-4.64,3.14,13.17,13.17,0,0,1-5.69,1.16,13.59,13.59,0,0,1-8.58-2.79v2.79Zm23.55-5.8a6.51,6.51,0,0,0,2-4.76V40.72a6.75,6.75,0,0,0-11.14-5.11,7,7,0,0,0-2.2,4.29V71.8A6.21,6.21,0,0,0,674.4,76a6,6,0,0,0,4.41,1.74A6.51,6.51,0,0,0,683.57,75.75Z"/><path d="M712.57,80.15a13.11,13.11,0,0,1-5-3.48,13.15,13.15,0,0,1-3.48-5,16.54,16.54,0,0,1-1.28-6.27v-19a16.45,16.45,0,0,1,1.28-6.26A15.7,15.7,0,0,1,707.58,35a15.26,15.26,0,0,1,5-3.36,16.49,16.49,0,0,1,6.26-1.28H719a16.17,16.17,0,0,1,6.14,1.28,11.82,11.82,0,0,1,2.73,1.45A28,28,0,0,1,730.2,35a15.7,15.7,0,0,1,3.48,5.11,16.17,16.17,0,0,1,1.16,6.26V57.3H712v13a.51.51,0,0,0,.11.35v.47a9.57,9.57,0,0,0,3.48,5.22,9.2,9.2,0,0,0,5.8,2.32H722a10.35,10.35,0,0,0,10-8.36h2.67a16.11,16.11,0,0,1-5.11,7.31,11.39,11.39,0,0,1-3.94,2.67,13.85,13.85,0,0,1-3.25.81h-.46a.11.11,0,0,1-.12.12h-.58a.46.46,0,0,1-.35.11h-1.27a.68.68,0,0,1-.47.12h-.23A16.49,16.49,0,0,1,712.57,80.15ZM726.25,40a6.28,6.28,0,0,0-1.85-4.64,7.82,7.82,0,0,0-4.64-2.32H719a7.45,7.45,0,0,0-5.11,2,6.81,6.81,0,0,0-2.08,5V52.66h14.49Z"/></svg>